<?xml version="1.0" encoding="UTF-8"?>
<svg version="1.1" xmlns="http://www.w3.org/2000/svg" width="54" height="54">
<path d="M0 0 C3.95062668 1.31687556 4.2144761 2.73459781 6.1171875 6.37890625 C6.71740723 7.51553711 7.31762695 8.65216797 7.93603516 9.82324219 C8.58240402 11.06963696 9.22872441 12.31605686 9.875 13.5625 C10.54758987 14.84203726 11.22126794 16.12100307 11.89599609 17.39941406 C13.27330238 20.01008861 14.64669243 22.62276525 16.01757812 25.23681641 C18.836834 30.60154617 21.72915337 35.92632686 24.625 41.25 C25.69153614 43.21607538 26.75794264 45.18222109 27.82421875 47.1484375 C28.34806152 48.11362305 28.8719043 49.07880859 29.41162109 50.07324219 C32.08876192 55.00616014 34.76352904 59.94036317 37.4375 64.875 C37.97060791 65.85871582 38.50371582 66.84243164 39.05297852 67.85595703 C43.06953765 75.27179231 47.06797519 82.69727787 51.0625 90.125 C55.82515535 98.98030671 60.61872453 107.81786418 65.44360352 116.6394043 C68.21853142 121.71820324 70.97740487 126.80534096 73.71875 131.90234375 C74.03384521 132.48819244 74.34894043 133.07404114 74.67358398 133.67764282 C76.21113145 136.53746335 77.74699464 139.3981775 79.28125 142.25976562 C80.1165625 143.8153418 80.1165625 143.8153418 80.96875 145.40234375 C81.48953125 146.37800293 82.0103125 147.35366211 82.546875 148.35888672 C83.78507159 150.60935895 85.10130564 152.76906634 86.46875 154.94140625 C88.26058281 158.52050086 88.07420146 159.26664837 87 163 C86.12205713 165.00825758 85.17872199 166.98850648 84.19140625 168.9453125 C83.60810547 170.10675781 83.02480469 171.26820313 82.42382812 172.46484375 C81.80339204 173.6848992 81.18294934 174.90495129 80.5625 176.125 C79.98306641 177.27871094 79.40363281 178.43242187 78.80664062 179.62109375 C75.77361333 185.64598872 72.67399041 191.6326253 69.51560974 197.59274292 C63.13882776 209.62746421 57.05841036 221.80255405 51 234 C45.04308365 245.99310726 39.06483674 257.96224118 32.78417969 269.78955078 C27.33120186 280.09563556 22.18643996 290.55809902 17 301 C11.03180762 313.01580938 5.04197157 325.00758545 -1.24987793 336.85766602 C-6.51735096 346.81182193 -11.49182902 356.91370686 -16.5 367 C-27.37749452 388.90691947 -27.37749452 388.90691947 -32.96875 399.4375 C-38.85287114 410.52130968 -44.4180572 421.76182999 -50 433 C-55.95691635 444.99310726 -61.93516326 456.96224118 -68.21582031 468.78955078 C-73.66879814 479.09563556 -78.81356004 489.55809902 -84 500 C-95.41619014 522.98430676 -95.41619014 522.98430676 -100.98828125 533.47265625 C-104.76060351 540.57381333 -108.40018006 547.73372233 -111.98046875 554.93359375 C-112.48885284 555.95587067 -112.99723694 556.97814758 -113.52102661 558.03140259 C-115.60634386 562.22955178 -117.68862572 566.42918959 -119.76733398 570.63061523 C-121.31392441 573.75425306 -122.86565876 576.87529523 -124.41796875 579.99609375 C-125.10417549 581.38869667 -125.10417549 581.38869667 -125.804245 582.80943298 C-126.67953151 584.56661184 -127.57663419 586.31317058 -128.49981594 588.04566574 C-130.04954388 590.98343796 -130.04954388 590.98343796 -131.22871208 594.1109972 C-132.82016007 597.64134068 -134.30959406 600.19923479 -137 603 C-142.46868966 604.76340534 -147.82181761 604.52159248 -153.49194336 604.36230469 C-155.17768104 604.35891726 -156.86343641 604.36082479 -158.54916382 604.36761475 C-163.11421352 604.37105221 -167.67546442 604.30061552 -172.23963237 604.21672726 C-177.01336333 604.1416056 -181.7871858 604.1346546 -186.56141663 604.12042236 C-195.59663512 604.08315418 -204.63010702 603.98472589 -213.66455704 603.86422849 C-223.95206345 603.73000309 -234.23965421 603.66409746 -244.52781856 603.60388327 C-265.68618651 603.47851997 -286.84298315 603.26751158 -308 603 C-306.58268101 598.63095539 -304.93691677 594.62808024 -302.875 590.51953125 C-302.57200485 589.91363663 -302.2690097 589.307742 -301.95683289 588.68348694 C-300.97541418 586.72435405 -299.98794982 584.76834641 -299 582.8125 C-298.31602225 581.45140491 -297.63218535 580.09023903 -296.94848633 578.72900391 C-292.88436264 570.65320616 -288.74538297 562.62108345 -284.49804688 554.63989258 C-281.13506725 548.3077265 -277.93513934 541.90048574 -274.7487793 535.47802734 C-271.51468586 528.9794912 -268.15250212 522.55612119 -264.75 516.14453125 C-261.74878439 510.47035799 -258.85275861 504.75009156 -256 499 C-252.35636929 491.65580685 -248.5929723 484.38613218 -244.75 477.14453125 C-241.74878439 471.47035799 -238.85275861 465.75009156 -236 460 C-232.35636929 452.65580685 -228.5929723 445.38613218 -224.75 438.14453125 C-221.74878439 432.47035799 -218.85275861 426.75009156 -216 421 C-212.35636929 413.65580685 -208.5929723 406.38613218 -204.75 399.14453125 C-201.74878439 393.47035799 -198.85275861 387.75009156 -196 382 C-192.35636929 374.65580685 -188.5929723 367.38613218 -184.75 360.14453125 C-181.74878439 354.47035799 -178.85275861 348.75009156 -176 343 C-172.35636929 335.65580685 -168.5929723 328.38613218 -164.75 321.14453125 C-161.74878439 315.47035799 -158.85275861 309.75009156 -156 304 C-152.35636929 296.65580685 -148.5929723 289.38613218 -144.75 282.14453125 C-141.74878439 276.47035799 -138.85275861 270.75009156 -136 265 C-132.35636929 257.65580685 -128.5929723 250.38613218 -124.75 243.14453125 C-121.36931268 236.75291929 -118.11523089 230.30353339 -114.92578125 223.81445312 C-112.17698229 218.2541633 -109.30456465 212.76451008 -106.40625 207.28125 C-101.18407876 197.39591844 -96.09124076 187.44696447 -91.01919556 177.48394775 C-88.38409434 172.30817935 -85.74467119 167.13461551 -83.10546875 161.9609375 C-82.58031174 160.93128876 -82.05515472 159.90164001 -81.51408386 158.84078979 C-76.96564519 149.92584467 -72.39484711 141.02255368 -67.8125 132.125 C-61.40137426 119.67447111 -55.00713437 107.21541627 -48.625 94.75 C-47.73763331 93.0169255 -46.85026352 91.28385258 -45.96289062 89.55078125 C-45.52363251 88.69289001 -45.08437439 87.83499878 -44.63180542 86.95111084 C-44.19256744 86.09325989 -43.75332947 85.23540894 -43.30078125 84.3515625 C-42.64132004 83.06357758 -42.64132004 83.06357758 -41.96853638 81.74957275 C-37.25282641 72.53985972 -32.53363205 63.33193461 -27.8125 54.125 C-27.20181671 52.93407242 -27.20181671 52.93407242 -26.57879639 51.71908569 C-17.73395637 34.4718018 -8.86953164 17.2345965 0 0 Z " fill="#000000" transform="translate(339,44)"/>
<path d="M0 0 C3.91674734 1.30558245 4.11123927 2.59674677 5.93359375 6.23046875 C6.77349854 7.88224121 6.77349854 7.88224121 7.63037109 9.56738281 C7.9244989 10.15668579 8.21862671 10.74598877 8.52166748 11.35314941 C10.07944397 14.47327035 11.66900355 17.57719047 13.25390625 20.68359375 C13.57315063 21.31153839 13.89239502 21.93948303 14.22131348 22.5864563 C16.99817135 28.03572485 19.91170811 33.40056158 22.875 38.75 C28.11568749 48.24990974 33.08977889 57.87590607 38.04046631 67.52868652 C42.25696458 75.74531241 46.53426088 83.91504923 51 92 C56.20107722 101.41623595 61.13254045 110.95917949 66.04101562 120.52978516 C70.2573316 128.74604307 74.53445952 136.91540885 79 145 C83.8333565 153.75049982 88.43848023 162.60601313 93 171.5 C97.60403081 180.47654835 102.25370823 189.41439359 107.125 198.25 C111.44145879 206.08534354 115.65519983 213.97066605 119.7880249 221.9041748 C120.42548526 223.12732538 121.06434424 224.34974815 121.70465088 225.57141113 C122.5938223 227.26933992 123.47674612 228.97053605 124.359375 230.671875 C124.86952148 231.6525293 125.37966797 232.63318359 125.90527344 233.64355469 C127 236 127 236 127 238 C46.15 238 -34.7 238 -118 238 C-116.74172182 234.22516547 -115.67617944 231.10251832 -113.94228935 227.63848305 C-113.53423337 226.81838898 -113.12617738 225.99829492 -112.70575607 225.15334952 C-112.26023175 224.26812656 -111.81470743 223.38290361 -111.35568237 222.47085571 C-110.88028145 221.51834502 -110.40488053 220.56583432 -109.91507351 219.58445966 C-108.32201543 216.39505073 -106.72325772 213.20853375 -105.12451172 210.02197266 C-103.98103044 207.73557427 -102.83790148 205.44899965 -101.69509888 203.16226196 C-99.23438025 198.24036935 -96.77121656 193.31971283 -94.30581284 188.40016556 C-90.74127913 181.28736773 -87.18117734 174.17235907 -83.62214555 167.05680697 C-77.84741805 155.51172677 -72.06912141 143.96843681 -66.28857422 132.42626953 C-60.67406714 121.21561971 -55.06124489 110.00412902 -49.45068359 98.79150391 C-49.10471755 98.10009727 -48.75875151 97.40869064 -48.40230165 96.69633229 C-46.66666312 93.22766534 -44.93105767 89.75898185 -43.19546866 86.29029012 C-28.80210676 57.52429214 -14.40295008 28.7611985 0 0 Z " fill="#B87602" transform="translate(530,409)"/>
<path d="M0 0 C6.9761509 5.85261269 12.06105605 11.91008846 14 21 C14.84768147 30.83310502 11.1219455 38.41325937 4.9140625 45.90234375 C-2.65419569 54.19653691 -10.92062204 59.78412441 -22 62 C-23.16444099 69.4856921 -19.27897183 74.12941061 -15 80 C-12.40006206 83.39122339 -9.73904654 86.72025855 -7 90 C-3.06856576 88.68952192 -1.58419106 86.1944313 0.8125 83 C1.79234477 81.72247876 2.77421204 80.44650688 3.7578125 79.171875 C4.28020508 78.49447266 4.80259766 77.81707031 5.34082031 77.11914062 C8.22139859 73.44000298 11.20589485 69.84737143 14.1875 66.25 C18.46529887 61.07880192 22.71542485 55.89140441 26.890625 50.63671875 C29.67525684 47.15592895 32.49574972 43.70481217 35.3125 40.25 C39.40576907 35.2264959 43.45396961 30.17341678 47.4375 25.0625 C52.19546043 18.95798029 57.09866813 12.98024695 62.05444336 7.03540039 C65.8523776 2.4621303 69.4770367 -2.2117077 73 -7 C75.46174651 -6.62076154 76.72354632 -6.283724 78.48535156 -4.47558594 C78.9490918 -3.81848633 79.41283203 -3.16138672 79.890625 -2.484375 C80.426875 -1.73865234 80.963125 -0.99292969 81.515625 -0.22460938 C82.08796875 0.59201172 82.6603125 1.40863281 83.25 2.25 C84.50344469 3.99605908 85.75872126 5.74080426 87.015625 7.484375 C87.66853516 8.39380859 88.32144531 9.30324219 88.99414062 10.24023438 C92.25055377 14.72057691 95.62621354 19.10777376 99 23.5 C107.04329723 34.00983106 114.89064241 44.65636306 122.70898438 55.33398438 C134.23833589 71.07016883 146.01488972 86.60818865 158 102 C169.39728064 74.69265321 180.75804686 47.37171199 192 20 C180.78 20 169.56 20 158 20 C159.464375 15.730625 160.92875 11.46125 162.4375 7.0625 C163.12863892 5.04008179 163.12863892 5.04008179 163.83374023 2.97680664 C164.19669189 1.92356201 164.55964355 0.87031738 164.93359375 -0.21484375 C165.30540771 -1.29886475 165.67722168 -2.38288574 166.06030273 -3.49975586 C167 -6 167 -6 168 -7 C169.40411317 -7.0954693 170.81299809 -7.12188529 172.22035217 -7.12025452 C173.13045547 -7.12162918 174.04055878 -7.12300385 174.97824097 -7.12442017 C175.98452545 -7.12082489 176.99080994 -7.11722961 178.02758789 -7.11352539 C179.08111954 -7.11367142 180.13465118 -7.11381744 181.22010803 -7.1139679 C184.720978 -7.11326826 188.22179552 -7.10547348 191.72265625 -7.09765625 C194.14261343 -7.09579225 196.56257099 -7.09436826 198.98252869 -7.09336853 C205.36615024 -7.08954192 211.74974921 -7.07971041 218.13336182 -7.06866455 C224.64163914 -7.05845351 231.1499201 -7.05387157 237.65820312 -7.04882812 C250.43881175 -7.03808827 263.21940467 -7.02120112 276 -7 C275.54046861 -5.43042883 275.07786348 -3.86175742 274.61401367 -2.29345703 C274.35673996 -1.41980499 274.09946625 -0.54615295 273.83439636 0.35397339 C272.56494286 4.37964739 270.96116606 8.24254631 269.3125 12.125 C268.99216797 12.89070313 268.67183594 13.65640625 268.34179688 14.4453125 C267.5656685 16.2987534 266.78349599 18.14966153 266 20 C261.23112363 20.02475064 256.46228479 20.04288403 251.69335938 20.05493164 C250.07160796 20.05995505 248.44986105 20.06677494 246.828125 20.07543945 C244.49478031 20.08759229 242.1614956 20.09324828 239.828125 20.09765625 C239.10506165 20.10281754 238.38199829 20.10797882 237.63702393 20.11329651 C234.24588369 20.11367296 231.26131775 19.90485405 228 19 C227.74143471 19.9952494 227.74143471 19.9952494 227.47764587 21.01060486 C225.65739934 27.86727612 223.53252632 34.5590733 221.19140625 41.25390625 C220.82458237 42.31189926 220.45775848 43.36989227 220.07981873 44.45994568 C218.91076709 47.82865195 217.73663959 51.19556423 216.5625 54.5625 C215.81023357 56.72970898 215.05827865 58.89702612 214.30664062 61.06445312 C207.93985489 79.40049033 201.47166533 97.70078329 195 116 C185.16870068 116.32583819 175.33870486 116.57384534 165.50308609 116.72537041 C160.9345118 116.79813913 156.36965613 116.89662539 151.80322266 117.05615234 C147.38729791 117.20943768 142.97492284 117.29220274 138.55654144 117.3282814 C136.88007462 117.35395119 135.20378073 117.40408883 133.52884674 117.48022079 C120.85170181 118.03298395 120.85170181 118.03298395 116.12020874 114.65989304 C110.26699657 109.23223828 106.31984673 102.62587835 102.40625 95.7421875 C98.35258593 90.77371006 94.34526286 90.17533279 88.25683594 89.53912354 C83.55822249 89.23789805 78.87914998 89.14119987 74.17138672 89.13867188 C70.50470725 89.12501753 66.85508034 88.99419446 63.19140625 88.8515625 C51.24742162 88.02728618 51.24742162 88.02728618 40.56835938 92.24658203 C38.27044235 95.05315761 36.64727612 97.77761104 35 101 C33.88630693 102.40207114 32.73289287 103.77409494 31.53125 105.1015625 C31.02335937 105.69324219 30.51546875 106.28492188 29.9921875 106.89453125 C29.49976563 107.46558594 29.00734375 108.03664063 28.5 108.625 C27.97664063 109.23472656 27.45328125 109.84445312 26.9140625 110.47265625 C22.17582112 115.98423754 22.17582112 115.98423754 19.90803528 116.18754578 C18.98681381 116.21548721 18.06559235 116.24342865 17.11645508 116.2722168 C15.55396782 116.32051888 15.55396782 116.32051888 13.95991516 116.36979675 C9.17688883 116.48021394 4.39400496 116.5628616 -0.38989258 116.62475586 C-2.91308475 116.66644409 -5.43603145 116.72783779 -7.95825195 116.80932617 C-11.59151481 116.92486827 -15.22065712 116.97498857 -18.85546875 117.01171875 C-19.98067429 117.06019455 -21.10587982 117.10867035 -22.2651825 117.15861511 C-25.46518854 117.15113309 -27.96773513 117.03037672 -31 116 C-33.83142826 113.0181418 -35.36034814 109.73883689 -37 106 C-37.66450812 104.79453168 -38.34213701 103.59610024 -39.03881836 102.40893555 C-39.63315674 101.329104 -40.22749512 100.24927246 -40.83984375 99.13671875 C-41.16988907 98.53801468 -41.49993439 97.93931061 -41.83998108 97.32246399 C-42.5288823 96.07198562 -43.21690603 94.82102343 -43.90405273 93.56958008 C-44.93084847 91.69961354 -45.9602889 89.83112386 -46.99023438 87.96289062 C-51.37504085 80.00097418 -55.70511802 72.0107826 -60 64 C-61.7290941 66.59364116 -62.65062403 68.51794072 -63.6640625 71.40795898 C-63.97778809 72.29575546 -64.29151367 73.18355194 -64.61474609 74.09825134 C-64.94812988 75.05453934 -65.28151367 76.01082733 -65.625 76.99609375 C-65.97256348 77.98118423 -66.32012695 78.96627472 -66.67822266 79.98121643 C-67.78942596 83.13193872 -68.89513451 86.28455015 -70 89.4375 C-71.10539869 92.58668475 -72.21201957 95.73542049 -73.32177734 98.8830719 C-74.01227791 100.84204112 -74.70019657 102.80192276 -75.38525391 104.76280212 C-75.69897949 105.65375076 -76.01270508 106.5446994 -76.3359375 107.46264648 C-76.60970215 108.24413559 -76.8834668 109.02562469 -77.16552734 109.83079529 C-77.97806007 111.94296734 -78.98792488 113.97584976 -80 116 C-94.19 116 -108.38 116 -123 116 C-119.68361361 107.32663788 -116.35158573 98.65977124 -113 90 C-112.66567711 89.13607887 -112.33135422 88.27215775 -111.98690033 87.38205719 C-107.16553089 74.93085363 -102.30509372 62.49566776 -97.39101219 50.08074379 C-95.1729564 44.47448593 -92.96845833 38.86361055 -90.79223633 33.2409668 C-88.65744711 27.72668383 -86.49026405 22.22620182 -84.29960823 16.73388481 C-83.47741159 14.65607136 -82.66688619 12.57359863 -81.86855888 10.48649788 C-80.75770123 7.58835636 -79.60601644 4.70985291 -78.44311523 1.83227539 C-78.12650436 0.97688675 -77.80989349 0.12149811 -77.48368835 -0.7598114 C-76.07022409 -4.15277173 -75.12406312 -6.39018824 -71.8188076 -8.18331146 C-69.5503482 -8.95585267 -67.34838773 -9.5327164 -65 -10 C-63.59572754 -10.35505615 -63.59572754 -10.35505615 -62.16308594 -10.71728516 C-40.37103937 -14.72607539 -18.16883257 -13.59654358 0 0 Z M-47 8 C-48.59424353 13.08746223 -50.17890117 18.17777153 -51.75463867 23.27099609 C-52.29235736 25.00424104 -52.83271478 26.7366696 -53.37573242 28.46826172 C-54.15453488 30.95331725 -54.92388797 33.44112722 -55.69140625 35.9296875 C-56.06006554 37.09538773 -56.06006554 37.09538773 -56.43617249 38.28463745 C-57.88746647 42.17542428 -57.88746647 42.17542428 -57 46 C-47.91384579 48.92054957 -39.77249357 48.97579067 -31 45 C-25.05523661 41.89997001 -20.66252815 37.17907475 -18 31 C-17.41422617 25.52977363 -18.9927747 20.56268666 -22 16 C-29.61859877 8.71264465 -36.89856771 7.93770956 -47 8 Z M70 51 C68.48958252 52.56050332 68.48958252 52.56050332 66.953125 54.62109375 C66.355 55.39259766 65.756875 56.16410156 65.140625 56.95898438 C64.51671875 57.77689453 63.8928125 58.59480469 63.25 59.4375 C62.6415625 60.22060547 62.033125 61.00371094 61.40625 61.81054688 C57.34085163 67.08774668 53.71857291 72.42214064 50 78 C63.86 78 77.72 78 92 78 C88.13867005 72.20800508 84.07503951 66.66995377 79.875 61.125 C78.78251953 59.66320312 78.78251953 59.66320312 77.66796875 58.171875 C76.97058594 57.25148438 76.27320313 56.33109375 75.5546875 55.3828125 C74.92030762 54.54121582 74.28592773 53.69961914 73.63232422 52.83251953 C73.09365723 52.22778809 72.55499023 51.62305664 72 51 C71.34 51 70.68 51 70 51 Z " fill="#000000" transform="translate(1675,496)"/>
<path d="M0 0 C5.37417555 5.59864971 7.15292438 12.6720821 7.52734375 20.28125 C7.0765988 31.35917397 1.99314707 38.92096752 -5.91015625 46.34375 C-8.80960018 48.8390575 -11.78720026 51.13677914 -14.91015625 53.34375 C-15.73515625 53.9625 -16.56015625 54.58125 -17.41015625 55.21875 C-20.55715279 56.63489844 -23.39762889 56.79716185 -26.82421875 56.9375 C-29.37355179 57.43399932 -30.27192676 58.38204845 -31.91015625 60.34375 C-28.32298944 70.26121118 -20.90880029 77.65433071 -13.91015625 85.34375 C-10.27755274 81.80261492 -6.91551342 78.11135593 -3.66015625 74.21875 C-3.18271973 73.6510791 -2.7052832 73.0834082 -2.21337891 72.49853516 C2.27106787 67.15450723 6.68948531 61.7571406 11.08984375 56.34375 C16.35006104 49.87254744 21.67141248 43.46236568 27.07373047 37.10986328 C30.46205949 33.11431534 33.74290045 29.0439899 36.99609375 24.9375 C39.4779575 21.86295237 42.02843944 18.85205804 44.58984375 15.84375 C49.96950124 9.52161701 55.22157452 3.10770619 60.25390625 -3.49609375 C61.31738281 -4.87474609 61.31738281 -4.87474609 62.40234375 -6.28125 C63.03785156 -7.11914062 63.67335938 -7.95703125 64.328125 -8.8203125 C64.90949219 -9.42617188 65.49085938 -10.03203125 66.08984375 -10.65625 C67.07984375 -10.65625 68.06984375 -10.65625 69.08984375 -10.65625 C70.52514648 -9.16601562 70.52514648 -9.16601562 72.0234375 -7.0625 C72.58353516 -6.28777344 73.14363281 -5.51304687 73.72070312 -4.71484375 C74.61499023 -3.44833984 74.61499023 -3.44833984 75.52734375 -2.15625 C76.79619429 -0.39534264 78.06573609 1.36506682 79.3359375 3.125 C80.28702393 4.45144531 80.28702393 4.45144531 81.25732422 5.8046875 C83.81959014 9.35485611 86.4495192 12.85147715 89.08984375 16.34375 C93.38193913 22.04250449 97.62022389 27.77867514 101.83984375 33.53125 C106.92907742 40.46678718 112.10874829 47.32717416 117.33984375 54.15625 C122.08097656 60.3466838 126.73766322 66.57127681 131.21923828 72.95166016 C135.0828796 78.41404961 139.14897185 83.71848595 143.21484375 89.03125 C159.08984375 109.7766527 159.08984375 109.7766527 159.08984375 111.34375 C121.60266039 117.00750906 121.60266039 117.00750906 108.08984375 112.34375 C104.09090569 108.60945804 102.57742503 104.44077611 100.77734375 99.34375 C98.86667544 94.15661507 96.94917078 89.32105877 92.08984375 86.34375 C83.12243514 83.58855627 73.50069918 83.92547795 64.21484375 84.03125 C62.96641693 84.03036377 61.71799011 84.02947754 60.43173218 84.02856445 C46.1291509 83.62832179 46.1291509 83.62832179 33.30273438 88.80615234 C30.79699184 91.53931526 28.95360066 94.15227246 27.08984375 97.34375 C25.87012656 98.78657169 24.62571462 100.20956051 23.33984375 101.59375 C21.03341132 104.20690301 21.03341132 104.20690301 19.03311157 107.05085754 C16.88433439 110.17345716 15.27324445 112.06116289 11.50305176 112.9614563 C8.28417107 113.15393196 5.13321326 113.13054452 1.91015625 113.02734375 C0.74225555 113.01743912 -0.42564514 113.00753448 -1.62893677 112.99732971 C-5.34896888 112.95823158 -9.06602025 112.87040737 -12.78515625 112.78125 C-15.31115522 112.74613072 -17.83720057 112.71419281 -20.36328125 112.68554688 C-26.54658512 112.60848417 -32.72815774 112.49143708 -38.91015625 112.34375 C-44.99294328 101.73093297 -50.674972 91.0218117 -56.04589844 80.03125 C-56.91911004 78.24832291 -57.79740404 76.46788788 -58.67578125 74.6875 C-59.17883789 73.65818359 -59.68189453 72.62886719 -60.20019531 71.56835938 C-62.25122857 67.70056279 -64.54659674 64.02635147 -66.91015625 60.34375 C-67.34360352 61.56368652 -67.77705078 62.78362305 -68.22363281 64.04052734 C-69.84681546 68.60731402 -71.4725943 73.17317297 -73.09912109 77.73876953 C-73.80001471 79.70727104 -74.50022312 81.67601666 -75.19970703 83.64501953 C-76.21072082 86.49056903 -77.22427306 89.33520388 -78.23828125 92.1796875 C-78.5457428 93.04677338 -78.85320435 93.91385925 -79.16998291 94.80722046 C-81.28206847 100.72169813 -83.57392354 106.50316823 -85.91015625 112.34375 C-100.10015625 112.34375 -114.29015625 112.34375 -128.91015625 112.34375 C-122.0263916 92.83975016 -122.0263916 92.83975016 -118.87109375 84.9765625 C-118.332248 83.62097733 -118.332248 83.62097733 -117.78251648 82.23800659 C-116.61962242 79.31375989 -115.45242051 76.39125465 -114.28515625 73.46875 C-112.60241873 69.2428819 -110.92208734 65.01605935 -109.2421875 60.7890625 C-108.81020554 59.70280579 -108.37822357 58.61654907 -107.93315125 57.49737549 C-104.71351352 49.39206327 -101.52896699 41.27343777 -98.359375 33.1484375 C-97.90641052 31.98829132 -97.45344604 30.82814514 -96.98675537 29.63284302 C-95.21369061 25.09087442 -93.4408093 20.54885262 -91.67523193 16.00396729 C-90.4560404 12.86593821 -89.23230743 9.72971266 -88.0078125 6.59375 C-87.65128098 5.67181854 -87.29474945 4.74988708 -86.92741394 3.80001831 C-81.18111839 -10.88027141 -81.18111839 -10.88027141 -77.61328125 -13.05859375 C-76.80375 -13.23519531 -75.99421875 -13.41179687 -75.16015625 -13.59375 C-74.27070312 -13.79484375 -73.38125 -13.9959375 -72.46484375 -14.203125 C-71.20027344 -14.42742187 -71.20027344 -14.42742187 -69.91015625 -14.65625 C-68.71390625 -14.883125 -67.51765625 -15.11 -66.28515625 -15.34375 C-44.08101794 -17.42262351 -17.41837486 -15.10304896 0 0 Z M-54.91015625 0.34375 C-56.16083069 4.57390456 -57.40568788 8.8057174 -58.64550781 13.0390625 C-59.06681904 14.47473678 -59.4896332 15.90997099 -59.9140625 17.34472656 C-62.2606511 25.28106632 -64.52374313 33.17056146 -65.91015625 41.34375 C-55.99276259 44.62832967 -45.43988188 43.83616465 -35.92578125 39.44140625 C-29.95318676 36.18888871 -26.08042688 31.8545619 -23.91015625 25.34375 C-23.34658945 19.65389289 -23.58219192 15.17466597 -26.91015625 10.34375 C-33.22373881 3.52908946 -39.55594956 1.39369262 -48.68359375 0.76953125 C-49.85067871 0.68743408 -51.01776367 0.60533691 -52.22021484 0.52075195 C-53.10789551 0.46234131 -53.99557617 0.40393066 -54.91015625 0.34375 Z M63.08984375 43.34375 C61.57678324 45.00258811 61.57678324 45.00258811 60.04296875 47.18359375 C59.44484375 48.00021484 58.84671875 48.81683594 58.23046875 49.65820312 C57.6065625 50.52380859 56.98265625 51.38941406 56.33984375 52.28125 C55.4271875 53.52745117 55.4271875 53.52745117 54.49609375 54.79882812 C50.53947765 60.23072095 46.82534396 65.74049968 43.08984375 71.34375 C55.95984375 71.34375 68.82984375 71.34375 82.08984375 71.34375 C79.6283264 65.18995662 76.20490153 60.06195055 72.58984375 54.53125 C71.90019531 53.45681641 71.21054688 52.38238281 70.5 51.27539062 C69.83871094 50.26025391 69.17742187 49.24511719 68.49609375 48.19921875 C67.89087891 47.26746826 67.28566406 46.33571777 66.66210938 45.37573242 C66.14326172 44.70517822 65.62441406 44.03462402 65.08984375 43.34375 C64.42984375 43.34375 63.76984375 43.34375 63.08984375 43.34375 Z " fill="#010101" transform="translate(1188.91015625,499.65625)"/>
<path d="M0 0 C12.21 0 24.42 0 37 0 C40.08957299 6.79706057 43.06070124 13.47194344 45.69921875 20.4296875 C46.18090263 21.68702194 46.18090263 21.68702194 46.6723175 22.96975708 C47.6805976 25.60362094 48.68419562 28.23923731 49.6875 30.875 C50.70259758 33.53176289 51.71864876 36.1881596 52.7348175 38.84451294 C53.36228915 40.48584923 53.98894993 42.12749582 54.6146698 43.76950073 C56.04673248 47.52548847 57.49143849 51.27383914 59 55 C61.06408748 49.09624942 63.12702949 43.19210023 65.18896484 37.28759766 C65.88885442 35.28391011 66.58904315 33.28032703 67.28955078 31.27685547 C68.30321929 28.37756108 69.31576901 25.47787791 70.328125 22.578125 C70.63558655 21.69948792 70.9430481 20.82085083 71.25982666 19.91558838 C73.56921956 13.29563882 75.78223764 6.65328709 78 0 C91.86 0 105.72 0 120 0 C113.1179795 18.35205468 113.1179795 18.35205468 109.9609375 25.71875 C109.60179764 26.56509506 109.24265778 27.41144012 108.87263489 28.28343201 C108.10604571 30.08935645 107.33804503 31.89468233 106.56869507 33.69943237 C104.47994161 38.59992621 102.40244886 43.50519247 100.32421875 48.41015625 C99.89182388 49.43009171 99.45942902 50.45002716 99.01393127 51.50086975 C93.16922404 65.30145441 87.42519794 79.14409603 81.67529297 92.984375 C81.27324142 93.95141861 80.87118988 94.91846222 80.45695496 95.91481018 C79.71852329 97.69114863 78.98074346 99.46775831 78.24385071 101.24473572 C75.21883421 108.52216526 72.10521745 115.75449262 69 123 C56.79 123 44.58 123 32 123 C27.71 108.48 23.42 93.96 19 79 C16.87839943 81.82880076 15.35335123 84.04675803 13.82348633 87.12597656 C13.41779419 87.93760254 13.01210205 88.74922852 12.59411621 89.58544922 C12.17762817 90.42865723 11.76114014 91.27186523 11.33203125 92.140625 C10.94188843 92.9229248 10.55174561 93.70522461 10.14978027 94.51123047 C8.69962607 97.4219686 7.25647568 100.33619185 5.8125 103.25 C2.574375 109.7675 -0.66375 116.285 -4 123 C-20.5 123 -37 123 -54 123 C-48.26589642 108.0913307 -48.26589642 108.0913307 -45.05859375 101.125 C-44.69822021 100.33333939 -44.33784668 99.54167877 -43.96655273 98.72602844 C-43.19432791 97.03015753 -42.42052272 95.33500546 -41.64523315 93.64053345 C-39.53586815 89.02871267 -37.44027196 84.41063868 -35.34375 79.79296875 C-34.90743759 78.83255173 -34.47112518 77.8721347 -34.02159119 76.88261414 C-29.10570667 66.05019319 -24.26496323 55.184558 -19.4375 44.3125 C-19.01512054 43.36146393 -18.59274109 42.41042786 -18.15756226 41.43057251 C-12.03913504 27.64839475 -5.97608061 13.84458676 0 0 Z " fill="#000000" transform="translate(844,489)"/>
<path d="M0 0 C0.9831543 1.91772461 0.9831543 1.91772461 1.82421875 4.40234375 C2.13037109 5.29244141 2.43652344 6.18253906 2.75195312 7.09960938 C3.06068359 8.03611328 3.36941406 8.97261719 3.6875 9.9375 C4.00783203 10.87013672 4.32816406 11.80277344 4.65820312 12.76367188 C7 19.66922641 7 19.66922641 7 22 C4.8579674 23.37262434 2.7163504 24.63252123 0.5 25.875 C-24.38491861 40.34034508 -47.04709479 60.77424949 -64 84 C-64.77859375 85.05703125 -65.5571875 86.1140625 -66.359375 87.203125 C-87.49314713 116.79040599 -100.44037113 152.31170853 -98 189 C-97.67551558 190.66841204 -97.3425193 192.33519688 -97 194 C-95.42566719 219.52483855 -103.76421455 237.76212592 -120 257 C-120.45810059 257.54366211 -120.91620117 258.08732422 -121.38818359 258.64746094 C-123.21338391 260.808114 -125.04263071 262.96516258 -126.88085938 265.11474609 C-130.60104199 269.47819933 -134.14486583 273.96214681 -137.6640625 278.48828125 C-141.36158882 283.22736428 -145.16510981 287.8716305 -149 292.5 C-153.71315544 298.19134549 -158.34453269 303.93324992 -162.88671875 309.76171875 C-166.36853977 314.22089304 -169.92248072 318.61734231 -173.5 323 C-177.54982067 327.96232244 -181.55805194 332.9515402 -185.5 338 C-189.44195001 343.04846229 -193.45028067 348.0375925 -197.5 353 C-202.56384319 359.20584416 -207.54238881 365.47203888 -212.4765625 371.78125 C-215.94714487 376.21721275 -219.4704841 380.61085988 -223 385 C-227.41218921 384.55453859 -229.96552727 381.55431773 -233 378.625 C-237.79200906 374.06793716 -237.79200906 374.06793716 -243 370 C-242.12483352 365.47321362 -239.49789784 362.78964921 -236.5 359.4375 C-235.39612865 358.17796497 -234.29327259 356.91753943 -233.19140625 355.65625 C-232.37373779 354.72425781 -232.37373779 354.72425781 -231.53955078 353.7734375 C-229.45305677 351.36996581 -227.44115422 348.91024932 -225.4375 346.4375 C-222.17221697 342.41641909 -218.85442156 338.44654838 -215.5 334.5 C-212.12716411 330.53096457 -208.78823355 326.53982979 -205.5 322.5 C-201.75147354 317.8946675 -197.92915754 313.35795556 -194.08374023 308.83374023 C-191.2045468 305.44045891 -188.36795763 302.01732214 -185.5625 298.5625 C-181.60556582 293.69950576 -177.53564058 288.94299797 -173.44384766 284.19384766 C-169.64649755 279.77750893 -165.94264714 275.29312364 -162.2734375 270.76953125 C-160.19932046 268.24281479 -158.09145357 265.75140286 -155.96630859 263.26782227 C-136.58756982 240.58964257 -120.1822756 217.90079785 -120.83886719 187.02954102 C-120.96319573 184.92587538 -120.96319573 184.92587538 -121.49780273 182.60546875 C-124.59719555 166.52539092 -122.21052947 148.6570351 -118 133 C-117.73509766 131.9800293 -117.73509766 131.9800293 -117.46484375 130.93945312 C-109.6369173 101.45426349 -93.69118707 75.0316563 -74 52 C-73.34 51.22785156 -72.68 50.45570313 -72 49.66015625 C-69.71479304 47.05900212 -67.36384864 44.52997563 -65 42 C-64.19876709 41.10788818 -64.19876709 41.10788818 -63.38134766 40.19775391 C-53.67020958 29.43531339 -43.7350248 22.38514734 -30.97412109 15.63476562 C-27.65934878 13.81275648 -24.42802413 11.87166776 -21.20703125 9.890625 C-20.6372908 9.5412941 -20.06755035 9.1919632 -19.48054504 8.83204651 C-16.67592925 7.10976972 -13.87809807 5.377319 -11.08618164 3.63452148 C-10.07547607 3.01649658 -9.06477051 2.39847168 -8.0234375 1.76171875 C-7.12544434 1.20444092 -6.22745117 0.64716309 -5.30224609 0.07299805 C-3 -1 -3 -1 0 0 Z " fill="#000000" transform="translate(476,262)"/>
<path d="M0 0 C0.99 0 1.98 0 3 0 C4.53926208 3.57569376 6.05312844 7.16159808 7.5625 10.75 C8.00013672 11.76578125 8.43777344 12.7815625 8.88867188 13.828125 C9.29794922 14.8078125 9.70722656 15.7875 10.12890625 16.796875 C10.70233765 18.14797363 10.70233765 18.14797363 11.28735352 19.52636719 C12.06462517 22.2243173 12.12389395 23.44496555 11 26 C8.296875 27.7890625 8.296875 27.7890625 4.75 29.625 C-7.59743428 36.30540847 -17.91048658 45.31130286 -28 55 C-28.83313721 55.79700317 -28.83313721 55.79700317 -29.68310547 56.61010742 C-41.04746604 67.69075086 -49.84837552 80.89447461 -57 95 C-57.56332031 96.10988281 -58.12664062 97.21976562 -58.70703125 98.36328125 C-68.5245704 118.7191409 -73.02520628 140.44853471 -73.24609375 162.9375 C-73.27901764 165.23698318 -73.31222952 167.53646225 -73.34570312 169.8359375 C-73.39311444 173.4234755 -73.4376201 177.01099514 -73.47680664 180.59863281 C-73.51669407 184.08675255 -73.56817438 187.57455694 -73.62109375 191.0625 C-73.6295079 192.12525146 -73.63792206 193.18800293 -73.64659119 194.28295898 C-73.78668871 202.79681926 -74.03797533 210.62187675 -79.875 217.25 C-80.67421875 218.16910156 -81.4734375 219.08820313 -82.296875 220.03515625 C-83.19519548 221.02591164 -84.0963737 222.01408143 -85 223 C-85.73379883 223.80606689 -85.73379883 223.80606689 -86.48242188 224.62841797 C-89.04321518 227.43468859 -91.62184502 230.22347758 -94.21484375 233 C-96.97346339 235.95876022 -99.64611326 238.98395085 -102.29296875 242.04296875 C-104.33633431 244.3855915 -106.41680859 246.69273422 -108.5 249 C-111.18983431 251.98062721 -113.86310364 254.97245233 -116.5 258 C-119.89253093 261.89512811 -123.35194201 265.72782763 -126.8125 269.5625 C-128.72554149 271.69417481 -130.61887612 273.8401911 -132.5 276 C-135.89253093 279.89512811 -139.35194201 283.72782763 -142.8125 287.5625 C-144.72554149 289.69417481 -146.61887612 291.8401911 -148.5 294 C-151.89253093 297.89512811 -155.35194201 301.72782763 -158.8125 305.5625 C-160.72554149 307.69417481 -162.61887612 309.8401911 -164.5 312 C-167.13689636 315.02754767 -169.81016569 318.01937279 -172.5 321 C-178.43530645 327.58022939 -184.24472571 334.26211791 -190 341 C-193.18849773 340.41503796 -194.8929959 339.5016539 -197.234375 337.27734375 C-197.80800781 336.73916016 -198.38164062 336.20097656 -198.97265625 335.64648438 C-199.55917969 335.08251953 -200.14570313 334.51855469 -200.75 333.9375 C-201.35199219 333.36966797 -201.95398438 332.80183594 -202.57421875 332.21679688 C-204.05563212 330.81768425 -205.5286488 329.40969053 -207 328 C-205.5528407 323.30323149 -202.78937375 320.322286 -199.4375 316.875 C-195.6290395 312.86202789 -191.9569958 308.82600209 -188.5 304.5 C-184.68005989 299.73891522 -180.61061181 295.28726975 -176.44140625 290.8359375 C-173.32431446 287.48883131 -170.36418887 284.06985859 -167.5 280.5 C-163.68005989 275.73891522 -159.61061181 271.28726975 -155.44140625 266.8359375 C-152.32431446 263.48883131 -149.36418887 260.06985859 -146.5 256.5 C-142.16238851 251.09770205 -137.50058405 246.05404384 -132.77734375 240.9921875 C-130.05696615 238.07457571 -127.42623872 235.08942861 -124.828125 232.0625 C-123.41512914 230.46835082 -121.95829079 228.91299908 -120.484375 227.375 C-109.16325469 215.55049596 -95.66103304 199.52429257 -96.0078125 182.40234375 C-96.02825866 181.04290315 -96.047579 179.68344527 -96.06591797 178.32397461 C-96.08159821 177.25154007 -96.08159821 177.25154007 -96.09759521 176.15744019 C-96.755594 122.85587497 -80.85730787 74.9083625 -45 35 C-44.31035156 34.21496094 -43.62070312 33.42992187 -42.91015625 32.62109375 C-36.58371227 25.83322008 -28.97918842 20.86564949 -21.37158203 15.64404297 C-17.20693497 12.75700021 -13.10486198 9.7836382 -9 6.8125 C-8.21633057 6.24756836 -7.43266113 5.68263672 -6.62524414 5.10058594 C-3.17112249 2.72107128 -3.17112249 2.72107128 0 0 Z " fill="#000000" transform="translate(489,306)"/>
<path d="M0 0 C3.46089672 1.43739237 5.16535462 3.13819083 7.3984375 6.12109375 C8.03539551 6.96438232 8.67235352 7.8076709 9.32861328 8.67651367 C10.34157471 10.0432019 10.34157471 10.0432019 11.375 11.4375 C12.08253418 12.37891846 12.79006836 13.32033691 13.51904297 14.2902832 C18.67841617 21.17117764 23.76906545 28.10314704 28.84912109 35.04272461 C33.36858441 41.19752848 38.03750531 47.22395552 42.75048828 53.23120117 C47.54392479 59.36179643 52.15850055 65.61196616 56.75 71.89453125 C61.29332426 78.09089536 65.98476713 84.1578998 70.72802734 90.2019043 C75.74237806 96.61431081 80.58378266 103.14603225 85.3828125 109.72070312 C86.20265625 110.8431543 86.20265625 110.8431543 87.0390625 111.98828125 C87.54856445 112.68646973 88.05806641 113.3846582 88.58300781 114.10400391 C89.80875892 115.74411126 91.09828682 117.33618934 92.3984375 118.91796875 C94 121 94 121 94 123 C87.3673811 123.38294165 80.73763529 123.64398979 74.09643555 123.82397461 C71.84242315 123.8990384 69.58913238 124.00113984 67.33764648 124.1315918 C49.28297592 125.15083931 49.28297592 125.15083931 43.99859619 121.68878174 C39.00516381 116.82090639 36.01816007 110.52194204 33.41894531 104.14160156 C31.48416615 100.19001472 29.91690161 97.10485863 26 95 C16.88614323 92.95364344 7.30589308 93.71498328 -1.96813965 94.10736084 C-5.46667741 94.24122982 -8.96642733 94.29990188 -12.46679688 94.36523438 C-19.31419483 94.50396486 -26.15674244 94.72530758 -33 95 C-34.03415195 97.54626979 -35.01759205 100.05595291 -35.84228516 102.67895508 C-38.27180464 109.96814 -41.51990351 117.45329492 -47.97650146 122.01794434 C-61.64173708 128.65003317 -83.35642372 124.31664844 -98 123 C-97.05311888 121.73479912 -96.10586077 120.46988038 -95.15844727 119.20507812 C-94.63098404 118.50064575 -94.10352081 117.79621338 -93.56007385 117.07043457 C-91.38685734 114.18627457 -89.17095372 111.33764029 -86.9375 108.5 C-86.4734375 107.90960937 -86.009375 107.31921875 -85.53125 106.7109375 C-81.35536219 101.41631051 -77.10089713 96.18723538 -72.83764648 90.96289062 C-69.34571093 86.67688717 -65.90234367 82.3573875 -62.5 78 C-58.0179989 72.25989332 -53.44043443 66.60306754 -48.8359375 60.9609375 C-45.34469917 56.67548382 -41.90181112 52.35670547 -38.5 48 C-34.02088732 42.26359254 -29.44655322 36.61017959 -24.84472656 30.97192383 C-20.80666079 26.01562448 -16.84246762 21.00619787 -12.90698242 15.96826172 C-8.68769912 10.57665114 -4.36174239 5.2771698 0 0 Z M-5 51 C-6.32420519 52.64441388 -6.32420519 52.64441388 -7.609375 54.8046875 C-8.11726563 55.61679687 -8.62515625 56.42890625 -9.1484375 57.265625 C-9.67695312 58.12671875 -10.20546875 58.9878125 -10.75 59.875 C-11.26304688 60.69742188 -11.77609375 61.51984375 -12.3046875 62.3671875 C-15.93612154 68.20667943 -19.46123412 74.10205687 -23 80 C-10.13 80 2.74 80 16 80 C12.36095392 73.63166936 8.48949432 67.61994997 4.375 61.5625 C3.3540625 60.03592773 3.3540625 60.03592773 2.3125 58.47851562 C1.66023438 57.51751953 1.00796875 56.55652344 0.3359375 55.56640625 C-0.25654785 54.68927979 -0.8490332 53.81215332 -1.45947266 52.90844727 C-1.96784668 52.27865967 -2.4762207 51.64887207 -3 51 C-3.66 51 -4.32 51 -5 51 Z " fill="#000000" transform="translate(1976,489)"/>
<path d="M0 0 C0.99 0 1.98 0 3 0 C3.09152344 1.13953125 3.18304687 2.2790625 3.27734375 3.453125 C3.88038562 8.28171425 5.58369432 12.33785111 7.5625 16.75 C8.21616805 18.22107291 8.86355481 19.69495677 9.50390625 21.171875 C9.79080322 21.8122168 10.0777002 22.45255859 10.37329102 23.11230469 C11 25 11 25 11 29 C9.92363281 29.47308594 8.84726562 29.94617188 7.73828125 30.43359375 C-19.90345617 42.83787509 -40.42463286 62.41790757 -51.56640625 90.85546875 C-57.65898017 108.11473039 -59.17763297 125.46230932 -58.9296875 143.65234375 C-58.91082474 147.20666599 -58.90806915 150.76102575 -58.90334892 154.31539059 C-58.89512786 157.99624259 -58.86719407 161.6749806 -58.79785156 165.35522461 C-58.31139419 192.5846247 -58.31139419 192.5846247 -63.79092407 199.2046051 C-66.02456268 201.37458253 -68.48273533 203.17307642 -71 205 C-72.57174867 206.81120794 -74.10055547 208.66155649 -75.5625 210.5625 C-79.37722613 215.30200822 -83.41569432 219.77898997 -87.53515625 224.25390625 C-89.92707297 226.91875166 -92.19254884 229.64831825 -94.4375 232.4375 C-98.09506264 236.97236161 -101.94617027 241.25536183 -105.91162109 245.51708984 C-109.71398807 249.62779276 -113.24270592 253.92275584 -116.75390625 258.28515625 C-119.0883059 261.10673495 -121.51990598 263.80590712 -124 266.5 C-128.08291497 270.93575948 -131.90597776 275.52170454 -135.6875 280.21484375 C-138.99790757 284.20187179 -142.50340384 287.99054394 -146.03125 291.78515625 C-148.02671788 293.83679121 -148.02671788 293.83679121 -149 296 C-152.66377743 295.42619828 -154.32767225 294.02730342 -156.890625 291.40234375 C-157.59960938 290.68369141 -158.30859375 289.96503906 -159.0390625 289.22460938 C-159.76867187 288.46986328 -160.49828125 287.71511719 -161.25 286.9375 C-162.36761719 285.79958008 -162.36761719 285.79958008 -163.5078125 284.63867188 C-165.34546694 282.76567793 -167.17575724 280.88604389 -169 279 C-165.62289504 274.33213874 -162.2327662 270.00129269 -158.0625 266 C-154.45324743 262.52572761 -151.13912561 258.90173111 -147.86303711 255.11914062 C-144.7493882 251.5774721 -141.49603082 248.16995356 -138.25 244.75 C-132.66030596 238.83619116 -127.11538798 232.88868877 -121.62890625 226.87890625 C-118.82377917 223.80702117 -116.00849388 220.7448075 -113.1875 217.6875 C-112.69636719 217.15511719 -112.20523438 216.62273437 -111.69921875 216.07421875 C-108.94584809 213.09376597 -106.18277712 210.12271315 -103.41015625 207.16015625 C-102.80083252 206.50893799 -102.19150879 205.85771973 -101.5637207 205.18676758 C-100.40057305 203.94470938 -99.23643554 202.70357697 -98.07104492 201.46362305 C-96.96042162 200.2780265 -95.86216557 199.08073675 -94.77587891 197.87280273 C-93 196 -93 196 -90.82958984 194.14477539 C-86.57626825 190.21146921 -84.60095818 187.12940368 -84.14570618 181.24105835 C-84.04123189 178.26008408 -84.03210536 175.29022402 -84.08432007 172.3079834 C-84.13969631 169.08112287 -84.10563796 165.85689191 -84.0778656 162.62985229 C-84.06505084 161.01360965 -84.05669626 159.3973253 -84.0528717 157.78103638 C-83.96681439 126.44199894 -79.02685051 93.26835995 -65 65 C-64.69336426 64.3704541 -64.38672852 63.7409082 -64.07080078 63.09228516 C-50.28556874 35.0430183 -29.58042742 17.07928108 -2 3 C-1.34 3 -0.68 3 0 3 C0 2.01 0 1.02 0 0 Z " fill="#000000" transform="translate(515,351)"/>
<path d="M0 0 C377.85 0 755.7 0 1145 0 C1145 2.31 1145 4.62 1145 7 C767.15 7 389.3 7 0 7 C0 4.69 0 2.38 0 0 Z " fill="#000000" transform="translate(724,639)"/>
<path d="M0 0 C35.97 0 71.94 0 109 0 C102.66666667 25.33333333 102.66666667 25.33333333 100 28 C97.51910809 28.23310016 95.14104158 28.34926035 92.65625 28.37890625 C91.93135376 28.39590073 91.20645752 28.4128952 90.45959473 28.43040466 C88.13981872 28.48360495 85.82006064 28.52385633 83.5 28.5625 C81.18003188 28.60642243 78.8602029 28.65313622 76.54040527 28.70530701 C75.09593114 28.73726484 73.65133441 28.76415485 72.20666504 28.78553772 C68.47842262 28.81141818 68.47842262 28.81141818 65 30 C64.07823996 31.80144578 64.07823996 31.80144578 63.28271484 34.03686523 C62.95356079 34.90370941 62.62440674 35.77055359 62.28527832 36.66366577 C61.93074585 37.618992 61.57621338 38.57431824 61.2109375 39.55859375 C60.83497437 40.55436432 60.45901123 41.55013489 60.07165527 42.57608032 C58.83302909 45.86084726 57.6041593 49.14918024 56.375 52.4375 C55.52437527 54.69682514 54.67296938 56.95585633 53.82080078 59.21459961 C52.07276226 63.84992066 50.32799509 68.48645137 48.5859375 73.12402344 C45.05323409 82.52396283 41.49448456 91.91395253 37.92462158 101.29983521 C36.88505316 104.03603951 35.84933576 106.77367969 34.81396484 109.51147461 C34.18603539 111.16526372 33.55795219 112.81899446 32.9296875 114.47265625 C32.64516724 115.22753326 32.36064697 115.98241028 32.06750488 116.76016235 C30.11392443 121.88607557 30.11392443 121.88607557 29 123 C27.55710213 123.09295815 26.10970215 123.11746513 24.66381836 123.11352539 C23.28249977 123.11341209 23.28249977 123.11341209 21.87327576 123.11329651 C20.87224319 123.10813522 19.87121063 123.10297394 18.83984375 123.09765625 C17.31043907 123.09553383 17.31043907 123.09553383 15.75013733 123.09336853 C12.47922893 123.08775097 9.20838787 123.0751955 5.9375 123.0625 C3.72591244 123.05748726 1.51432382 123.05292396 -0.69726562 123.04882812 C-6.13153357 123.03777584 -11.56576197 123.02102063 -17 123 C-13.32630702 112.90161076 -8.99953512 103.16944481 -4.52822876 93.40570068 C-2.42613534 88.81377927 -0.33733866 84.21583119 1.75 79.6171875 C2.17975632 78.67050201 2.60951263 77.72381653 3.05229187 76.7484436 C7.84845459 66.16112528 12.52642428 55.52233724 17.1875 44.875 C17.58480316 43.96762085 17.98210632 43.0602417 18.39144897 42.12536621 C20.59762137 37.08501755 22.79937179 32.04277767 25 27 C14.44 27 3.88 27 -7 27 C-6.401875 24.586875 -5.80375 22.17375 -5.1875 19.6875 C-5.00598389 18.95233154 -4.82446777 18.21716309 -4.63745117 17.4597168 C-3.18094792 11.61022404 -1.58751901 5.82090303 0 0 Z " fill="#000000" transform="translate(982,489)"/>
<path d="M0 0 C35.97 0 71.94 0 109 0 C108.228603 3.85698502 107.41217319 6.73969556 105.93359375 10.30078125 C105.57064209 11.18161377 105.20769043 12.06244629 104.83374023 12.9699707 C104.37298096 14.07300537 103.91222168 15.17604004 103.4375 16.3125 C101.973125 19.839375 100.50875 23.36625 99 27 C86.79 27 74.58 27 62 27 C61.34 29.97 60.68 32.94 60 36 C59.48972481 37.65251943 58.94452695 39.29529994 58.34277344 40.91674805 C58.02726532 41.77571686 57.7117572 42.63468567 57.38668823 43.51968384 C56.87816818 44.87699112 56.87816818 44.87699112 56.359375 46.26171875 C56.00013947 47.23491058 55.64090393 48.20810242 55.27078247 49.21078491 C54.10258861 52.37171928 52.92635154 55.52959357 51.75 58.6875 C50.94100489 60.87210563 50.13257898 63.05692213 49.32470703 65.24194336 C47.68509381 69.67438444 46.04251529 74.10570836 44.39746094 78.53613281 C41.54529251 86.22056087 38.71325133 93.91234927 35.88330078 101.60498047 C33.25852634 108.73775556 30.62879133 115.86870436 28 123 C13.15 123 -1.7 123 -17 123 C-15.16924678 116.89748925 -13.50194194 111.462452 -11.05859375 105.6953125 C-10.77852478 105.02930527 -10.49845581 104.36329803 -10.2098999 103.67710876 C-9.60532281 102.24047003 -8.99854487 100.80475579 -8.38973999 99.36990356 C-6.72277431 95.44003585 -5.07330047 91.50282355 -3.421875 87.56640625 C-3.07074142 86.73050461 -2.71960785 85.89460297 -2.35783386 85.03337097 C2.10040752 74.40443582 6.45484686 63.73296697 10.8125 53.0625 C11.60294076 51.12841584 12.39338661 49.19433376 13.18383789 47.26025391 C14.57602415 43.85220794 15.9680545 40.4440988 17.35864258 37.03540039 C17.62872635 36.37343155 17.89881012 35.71146271 18.17707825 35.0294342 C19.12592005 32.68946446 20.06222868 30.34442831 21 28 C10.77 27.67 0.54 27.34 -10 27 C-8.535625 22.91625 -7.07125 18.8325 -5.5625 14.625 C-5.10174072 13.33803223 -4.64098145 12.05106445 -4.16625977 10.72509766 C-3.62183228 9.20988525 -3.62183228 9.20988525 -3.06640625 7.6640625 C-2.69459229 6.62717285 -2.32277832 5.5902832 -1.93969727 4.52197266 C-1 2 -1 2 0 0 Z " fill="#000000" transform="translate(1481,489)"/>
<path d="M0 0 C0.86825912 0.00222061 1.73651825 0.00444122 2.63108826 0.00672913 C3.61202957 0.00680466 4.59297089 0.00688019 5.6036377 0.00695801 C6.6702916 0.01211929 7.7369455 0.01728058 8.83592224 0.02259827 C10.46520912 0.02472069 10.46520912 0.02472069 12.12741089 0.02688599 C15.61230674 0.03250403 19.09713941 0.04505959 22.58201599 0.05775452 C24.93813486 0.06276719 27.29425473 0.0673305 29.65037537 0.07142639 C35.44011063 0.08247933 41.2298088 0.09923501 47.01951599 0.12025452 C45.7571128 3.90746409 44.61097222 4.17235396 41.20701599 6.12025452 C33.53597674 10.8732906 23.87612746 17.08565997 20.83201599 25.99525452 C20.52237302 27.36203794 20.24488132 28.73707479 20.01951599 30.12025452 C19.79264099 30.96587952 19.56576599 31.81150452 19.33201599 32.68275452 C18.74491979 37.26210492 18.0534715 42.86049146 20.01951599 47.12025452 C20.62150818 47.41029358 21.22350037 47.70033264 21.84373474 47.99916077 C27.14105395 50.72865917 30.93078941 56.0712377 33.01951599 61.55775452 C35.09919984 69.14860056 33.4610064 75.50283158 29.79295349 82.31947327 C24.17690971 91.188864 17.16792275 99.16900118 10.07810974 106.87806702 C7.59783928 109.57953807 5.20528395 112.35031365 2.82029724 115.13587952 C2.22603943 115.79072327 1.63178162 116.44556702 1.01951599 117.12025452 C0.23906921 118.13909729 -0.54137756 119.15794006 -1.34547424 120.20765686 C-5.0613783 123.88303597 -8.54095051 123.80223174 -13.58848572 123.80003357 C-14.69495453 123.76906586 -15.80142334 123.73809814 -16.94142151 123.70619202 C-18.08712616 123.69770233 -19.23283081 123.68921265 -20.41325378 123.6804657 C-24.0616326 123.64696065 -27.70777667 123.57167901 -31.35548401 123.49525452 C-33.83331661 123.46515152 -36.31118395 123.43777632 -38.78907776 123.41322327 C-44.85363839 123.34717857 -50.91690153 123.24685626 -56.98048401 123.12025452 C-56.0413665 122.0084734 -55.09990618 120.89867101 -54.15748596 119.78968811 C-53.63346695 119.17145172 -53.10944794 118.55321533 -52.56954956 117.91624451 C-50.27569594 115.32369058 -47.74745416 113.05088838 -45.16798401 110.74525452 C-23.98145754 92.80337979 -23.98145754 92.80337979 -10.98048401 69.12025452 C-10.82687531 60.51816753 -17.17983477 54.82095785 -22.68360901 48.85853577 C-26.6987164 43.47684062 -26.67230037 37.55596728 -25.98048401 31.12025452 C-24.25753332 24.48689438 -19.23561069 19.86855285 -14.66017151 15.01478577 C-11.15368167 11.22716336 -7.93446358 7.25647522 -4.69532776 3.23744202 C-2.1803505 0.13239036 -2.1803505 0.13239036 0 0 Z " fill="#000000" transform="translate(1414.980484008789,488.87974548339844)"/>
<path d="M0 0 C0.79719955 0.00222061 1.59439911 0.00444122 2.41575623 0.00672913 C3.31661453 0.00680466 4.21747284 0.00688019 5.14562988 0.00695801 C6.12478867 0.01211929 7.10394745 0.01728058 8.11277771 0.02259827 C9.11018478 0.02401321 10.10759186 0.02542816 11.13522339 0.02688599 C14.3348027 0.03250337 17.53431315 0.04505881 20.73387146 0.05775452 C22.89728191 0.06276728 25.06069345 0.06733057 27.22410583 0.07142639 C32.53988471 0.08247845 37.85562317 0.09923348 43.17137146 0.12025452 C40.09745833 8.37774202 36.75539125 16.40962088 32.98387146 24.37025452 C27.66140375 35.7533424 22.57526033 47.2299335 17.54637146 58.74525452 C10.39340592 75.12128555 3.11622091 91.43744835 -4.25489807 107.71644592 C-4.62228592 108.52905884 -4.98967377 109.34167175 -5.36819458 110.1789093 C-6.05428734 111.69608428 -6.74165856 113.21268202 -7.43054199 114.72859192 C-8.68545097 117.50381561 -9.86466276 120.22835719 -10.82862854 123.12025452 C-25.67862854 123.12025452 -40.52862854 123.12025452 -55.82862854 123.12025452 C-55.11532159 119.55371975 -54.57133539 117.19995583 -53.14894104 114.02479553 C-52.80281265 113.24541626 -52.45668427 112.46603699 -52.10006714 111.66304016 C-51.7217424 110.82520996 -51.34341766 109.98737976 -50.95362854 109.12416077 C-50.55737778 108.23581543 -50.16112701 107.34747009 -49.75286865 106.4322052 C-48.44959088 103.51354764 -47.13912163 100.59817857 -45.82862854 97.68275452 C-44.91710646 95.64479764 -44.00606033 93.60662783 -43.09547424 91.56825256 C-40.78297819 86.39469711 -38.46475641 81.22373136 -36.14460754 76.05360413 C-33.81517279 70.8612367 -31.49089034 65.66656423 -29.16642761 60.4719696 C-28.81518829 59.68704132 -28.46394897 58.90211304 -28.10206604 58.09339905 C-27.58337952 56.93423981 -27.58337952 56.93423981 -27.05421448 55.75166321 C-26.02014652 53.44173 -24.98502326 51.13227203 -23.94972229 48.82289124 C-20.43215028 40.97213746 -16.93614235 33.11244311 -13.47315979 25.23744202 C-13.1215831 24.43825851 -12.77000641 23.63907501 -12.40777588 22.81567383 C-10.72956136 18.99926795 -9.05448791 15.18152493 -7.38404846 11.36170959 C-6.7927099 10.01427492 -6.20132279 8.66686155 -5.60987854 7.31947327 C-5.09489807 6.14215637 -4.5799176 4.96483948 -4.04933167 3.75184631 C-2.38163288 0.15662126 -2.38163288 0.15662126 0 0 Z " fill="#000000" transform="translate(779.8286285400391,488.87974548339844)"/>
<path d="M0 0 C1.22460938 -0.020625 2.44921875 -0.04125 3.7109375 -0.0625 C11.16982087 -0.09478954 16.97141987 -0.04364574 22.875 4.9375 C24.41009112 8.48739822 23.90703263 11.64149429 22.875 15.25 C19.94646821 20.49695279 15.04319819 22.60952988 9.875 25.25 C12.13275875 27.7620851 14.40824498 30.25741569 16.6875 32.75 C17.33009766 33.46542969 17.97269531 34.18085937 18.63476562 34.91796875 C19.25673828 35.59472656 19.87871094 36.27148438 20.51953125 36.96875 C21.09034424 37.59716797 21.66115723 38.22558594 22.24926758 38.87304688 C23.90145642 40.57315345 23.90145642 40.57315345 26.875 40.25 C28.63551854 38.50305072 28.63551854 38.50305072 30.31640625 36.1484375 C30.97801758 35.271875 31.63962891 34.3953125 32.32128906 33.4921875 C33.01963867 32.54601562 33.71798828 31.59984375 34.4375 30.625 C35.15260742 29.67109375 35.86771484 28.7171875 36.60449219 27.734375 C41.4517777 21.24509066 46.21013106 14.69498785 50.859375 8.0625 C51.52453125 7.134375 52.1896875 6.20625 52.875 5.25 C53.62523437 3.826875 53.62523437 3.826875 54.390625 2.375 C58.55317267 -1.18541814 63.6257493 -0.12140925 68.875 0.25 C69.96236031 4.2836313 71.04658373 8.31809015 72.12817383 12.35327148 C72.49487075 13.71970169 72.8623559 15.08592067 73.23071289 16.4519043 C75.62865594 25.34686632 77.87370755 34.25522226 79.875 43.25 C76.575 43.25 73.275 43.25 69.875 43.25 C68.73735649 38.98383684 67.875 35.68513689 67.875 31.25 C55.29903948 30.67675353 55.29903948 30.67675353 42.875 32.25 C39.9884146 34.93635982 38.88115042 37.30287436 37.12890625 40.7890625 C34.10393471 44.09189104 31.77529038 44.260422 27.41064453 44.6315918 C21.12061789 44.75506309 15.22175502 44.8352702 10.16796875 40.67578125 C6.66443286 37.15669137 4.02221567 33.14622425 1.45703125 28.90625 C-0.80830451 26.53463923 -2.59485382 26.65141864 -5.8125 26.5 C-6.80636719 26.44328125 -7.80023437 26.3865625 -8.82421875 26.328125 C-9.58347656 26.30234375 -10.34273437 26.2765625 -11.125 26.25 C-11.24617187 27.05824219 -11.36734375 27.86648438 -11.4921875 28.69921875 C-11.65976562 29.76785156 -11.82734375 30.83648438 -12 31.9375 C-12.16242187 32.99324219 -12.32484375 34.04898438 -12.4921875 35.13671875 C-13.08393069 38.04794914 -13.9281806 40.53955607 -15.125 43.25 C-17.765 43.25 -20.405 43.25 -23.125 43.25 C-22.53507921 35.13858908 -20.62974257 27.39706371 -18.68652344 19.52685547 C-18.11987199 17.22920705 -17.56326164 14.92928569 -17.0078125 12.62890625 C-16.65162479 11.16912843 -16.29487483 9.70948765 -15.9375 8.25 C-15.68746216 7.21734009 -15.68746216 7.21734009 -15.43237305 6.16381836 C-13.327923 -2.30910611 -7.89050221 0.03260538 0 0 Z M-6.125 5.25 C-6.63088147 7.16512272 -7.12948391 9.08216922 -7.625 11 C-7.9034375 12.06734375 -8.181875 13.1346875 -8.46875 14.234375 C-9.26675989 17.38705302 -9.26675989 17.38705302 -9.125 21.25 C-1.76357863 21.58126396 4.22673605 21.63457074 10.875 18.25 C13.20769459 15.91730541 14.77013234 13.60576513 14.875 10.25 C12.65632865 7.47666082 11.26879675 6.38126558 7.875 5.25 C5.48009014 5.18029948 3.08332309 5.16551997 0.6875 5.1875 C-0.58480469 5.19652344 -1.85710938 5.20554687 -3.16796875 5.21484375 C-4.14378906 5.22644531 -5.11960937 5.23804688 -6.125 5.25 Z M60.875 6.25 C59.78598822 7.59563002 58.74109768 8.97700994 57.71484375 10.37109375 C57.08642578 11.22380859 56.45800781 12.07652344 55.81054688 12.95507812 C55.15119141 13.85677734 54.49183594 14.75847656 53.8125 15.6875 C53.14927734 16.58533203 52.48605469 17.48316406 51.80273438 18.40820312 C48.58887554 22.02923254 48.58887554 22.02923254 46.875 26.25 C53.145 26.25 59.415 26.25 65.875 26.25 C64.68608923 19.54114635 63.39904465 12.89048026 61.875 6.25 C61.545 6.25 61.215 6.25 60.875 6.25 Z " fill="#000000" transform="translate(961.125,671.75)"/>
<path d="M0 0 C1.79244141 0.01740234 1.79244141 0.01740234 3.62109375 0.03515625 C5.41740234 0.04869141 5.41740234 0.04869141 7.25 0.0625 C8.17683594 0.07410156 9.10367187 0.08570313 10.05859375 0.09765625 C15.39192708 10.76432292 20.72526042 21.43098958 26.05859375 32.09765625 C28.69859375 21.53765625 31.33859375 10.97765625 34.05859375 0.09765625 C37.02859375 0.09765625 39.99859375 0.09765625 43.05859375 0.09765625 C41.65732215 6.06187776 40.25139324 12.02497423 38.84106445 17.98706055 C38.36157904 20.01702846 37.88338606 22.0473021 37.40649414 24.07788086 C36.72228095 26.99022755 36.03348406 29.90145659 35.34375 32.8125 C35.13017349 33.72603745 34.91659698 34.63957489 34.69654846 35.58079529 C34.39635048 36.84198936 34.39635048 36.84198936 34.09008789 38.12866211 C33.91465958 38.87256699 33.73923126 39.61647186 33.55848694 40.38291931 C33.05859375 42.09765625 33.05859375 42.09765625 32.05859375 43.09765625 C28.42859375 43.09765625 24.79859375 43.09765625 21.05859375 43.09765625 C15.44859375 31.54765625 9.83859375 19.99765625 4.05859375 8.09765625 C1.08859375 19.64765625 -1.88140625 31.19765625 -4.94140625 43.09765625 C-7.58140625 43.09765625 -10.22140625 43.09765625 -12.94140625 43.09765625 C-12.35148546 34.98624533 -10.44614882 27.24471996 -8.50292969 19.37451172 C-7.93627824 17.0768633 -7.37966789 14.77694194 -6.82421875 12.4765625 C-6.46803104 11.01678468 -6.11128108 9.5571439 -5.75390625 8.09765625 C-5.50386841 7.06499634 -5.50386841 7.06499634 -5.2487793 6.01147461 C-3.78691561 0.12572761 -3.78691561 0.12572761 0 0 Z " fill="#000000" transform="translate(1804.94140625,671.90234375)"/>
<path d="M0 0 C1.79244141 0.01740234 1.79244141 0.01740234 3.62109375 0.03515625 C5.41740234 0.04869141 5.41740234 0.04869141 7.25 0.0625 C8.17683594 0.07410156 9.10367187 0.08570313 10.05859375 0.09765625 C15.39192708 10.76432292 20.72526042 21.43098958 26.05859375 32.09765625 C28.69859375 21.53765625 31.33859375 10.97765625 34.05859375 0.09765625 C37.02859375 0.09765625 39.99859375 0.09765625 43.05859375 0.09765625 C41.65732215 6.06187776 40.25139324 12.02497423 38.84106445 17.98706055 C38.36157904 20.01702846 37.88338606 22.0473021 37.40649414 24.07788086 C36.72228095 26.99022755 36.03348406 29.90145659 35.34375 32.8125 C35.13017349 33.72603745 34.91659698 34.63957489 34.69654846 35.58079529 C34.39635048 36.84198936 34.39635048 36.84198936 34.09008789 38.12866211 C33.91465958 38.87256699 33.73923126 39.61647186 33.55848694 40.38291931 C33.05859375 42.09765625 33.05859375 42.09765625 32.05859375 43.09765625 C28.42859375 43.09765625 24.79859375 43.09765625 21.05859375 43.09765625 C15.44859375 31.54765625 9.83859375 19.99765625 4.05859375 8.09765625 C1.08859375 19.64765625 -1.88140625 31.19765625 -4.94140625 43.09765625 C-7.58140625 43.09765625 -10.22140625 43.09765625 -12.94140625 43.09765625 C-12.35148546 34.98624533 -10.44614882 27.24471996 -8.50292969 19.37451172 C-7.93627824 17.0768633 -7.37966789 14.77694194 -6.82421875 12.4765625 C-6.46803104 11.01678468 -6.11128108 9.5571439 -5.75390625 8.09765625 C-5.50386841 7.06499634 -5.50386841 7.06499634 -5.2487793 6.01147461 C-3.78691561 0.12572761 -3.78691561 0.12572761 0 0 Z " fill="#000000" transform="translate(1062.94140625,671.90234375)"/>
<path d="M0 0 C3.872711 3.16157159 6.23275672 6.32521324 7.0625 11.3125 C7.40956607 19.16153275 4.7285667 26.1391763 -0.19921875 32.1796875 C-7.0592281 39.11410043 -14.86530722 42.19098313 -24.56005859 42.37988281 C-25.32398926 42.37827148 -26.08791992 42.37666016 -26.875 42.375 C-27.6685791 42.37338867 -28.4621582 42.37177734 -29.27978516 42.37011719 C-36.63546934 42.21596067 -41.79081196 40.64758014 -47.5 35.9375 C-51.38970956 30.91329182 -50.59546551 24.0094106 -50 18 C-47.90153723 11.09295213 -44.09317934 5.86426284 -38 2 C-27.10653842 -3.73243071 -11.14116487 -6.5165304 0 0 Z M-38 12 C-41.23934214 17.36516042 -42.0738514 22.85068114 -41 29 C-39.23962893 32.66367826 -36.79915848 34.61779377 -33.125 36.375 C-24.93483631 38.01303274 -17.25571413 36.59043469 -10.125 32.25 C-4.95439731 26.77524421 -2.38604198 20.51575489 -2 13 C-2.70658238 9.06227528 -4.22534864 6.59588566 -7.4375 4.125 C-18.85015338 -0.88543319 -29.99705558 2.96381158 -38 12 Z " fill="#000000" transform="translate(1779,674)"/>
<path d="M0 0 C3.872711 3.16157159 6.23275672 6.32521324 7.0625 11.3125 C7.40956607 19.16153275 4.7285667 26.1391763 -0.19921875 32.1796875 C-7.0592281 39.11410043 -14.86530722 42.19098313 -24.56005859 42.37988281 C-25.32398926 42.37827148 -26.08791992 42.37666016 -26.875 42.375 C-27.6685791 42.37338867 -28.4621582 42.37177734 -29.27978516 42.37011719 C-36.63546934 42.21596067 -41.79081196 40.64758014 -47.5 35.9375 C-51.38970956 30.91329182 -50.59546551 24.0094106 -50 18 C-47.90153723 11.09295213 -44.09317934 5.86426284 -38 2 C-27.10653842 -3.73243071 -11.14116487 -6.5165304 0 0 Z M-38 12 C-41.23934214 17.36516042 -42.0738514 22.85068114 -41 29 C-39.23962893 32.66367826 -36.79915848 34.61779377 -33.125 36.375 C-24.93483631 38.01303274 -17.25571413 36.59043469 -10.125 32.25 C-4.95439731 26.77524421 -2.38604198 20.51575489 -2 13 C-2.70658238 9.06227528 -4.22534864 6.59588566 -7.4375 4.125 C-18.85015338 -0.88543319 -29.99705558 2.96381158 -38 12 Z " fill="#000000" transform="translate(1524,674)"/>
<path d="M0 0 C3.872711 3.16157159 6.23275672 6.32521324 7.0625 11.3125 C7.40956607 19.16153275 4.7285667 26.1391763 -0.19921875 32.1796875 C-7.0592281 39.11410043 -14.86530722 42.19098313 -24.56005859 42.37988281 C-25.32398926 42.37827148 -26.08791992 42.37666016 -26.875 42.375 C-27.6685791 42.37338867 -28.4621582 42.37177734 -29.27978516 42.37011719 C-36.63546934 42.21596067 -41.79081196 40.64758014 -47.5 35.9375 C-51.38970956 30.91329182 -50.59546551 24.0094106 -50 18 C-47.90153723 11.09295213 -44.09317934 5.86426284 -38 2 C-27.10653842 -3.73243071 -11.14116487 -6.5165304 0 0 Z M-38 12 C-41.23934214 17.36516042 -42.0738514 22.85068114 -41 29 C-39.23962893 32.66367826 -36.79915848 34.61779377 -33.125 36.375 C-24.93483631 38.01303274 -17.25571413 36.59043469 -10.125 32.25 C-4.95439731 26.77524421 -2.38604198 20.51575489 -2 13 C-2.70658238 9.06227528 -4.22534864 6.59588566 -7.4375 4.125 C-18.85015338 -0.88543319 -29.99705558 2.96381158 -38 12 Z " fill="#000000" transform="translate(1354,674)"/>
<path d="M0 0 C1.22460938 -0.020625 2.44921875 -0.04125 3.7109375 -0.0625 C11.16982087 -0.09478954 16.97141987 -0.04364574 22.875 4.9375 C24.41009112 8.48739822 23.90703263 11.64149429 22.875 15.25 C19.94646821 20.49695279 15.04319819 22.60952988 9.875 25.25 C10.28862793 25.68868408 10.70225586 26.12736816 11.12841797 26.5793457 C13.00452806 28.57162604 14.87729207 30.56702159 16.75 32.5625 C17.72646484 33.59793945 17.72646484 33.59793945 18.72265625 34.65429688 C19.34785156 35.32138672 19.97304687 35.98847656 20.6171875 36.67578125 C21.1932373 37.28848877 21.76928711 37.90119629 22.36279297 38.5324707 C23.875 40.25 23.875 40.25 25.875 43.25 C21.65304579 44.045761 18.08009612 44.21891616 13.875 43.25 C8.77901857 39.70334626 4.65583488 34.12231432 1.421875 28.90625 C-0.81035606 26.51618442 -2.60822993 26.65078918 -5.8125 26.5 C-6.80636719 26.44328125 -7.80023437 26.3865625 -8.82421875 26.328125 C-9.58347656 26.30234375 -10.34273437 26.2765625 -11.125 26.25 C-11.24617188 27.05824219 -11.36734375 27.86648438 -11.4921875 28.69921875 C-11.65976563 29.76785156 -11.82734375 30.83648438 -12 31.9375 C-12.16242188 32.99324219 -12.32484375 34.04898438 -12.4921875 35.13671875 C-13.08393069 38.04794914 -13.9281806 40.53955607 -15.125 43.25 C-17.765 43.25 -20.405 43.25 -23.125 43.25 C-22.53507921 35.13858908 -20.62974257 27.39706371 -18.68652344 19.52685547 C-18.11987199 17.22920705 -17.56326164 14.92928569 -17.0078125 12.62890625 C-16.65162479 11.16912843 -16.29487483 9.70948765 -15.9375 8.25 C-15.68746216 7.21734009 -15.68746216 7.21734009 -15.43237305 6.16381836 C-13.327923 -2.30910611 -7.89050221 0.03260538 0 0 Z M-6.125 5.25 C-6.63088147 7.16512272 -7.12948391 9.08216922 -7.625 11 C-7.9034375 12.06734375 -8.181875 13.1346875 -8.46875 14.234375 C-9.26675989 17.38705302 -9.26675989 17.38705302 -9.125 21.25 C-1.76357863 21.58126396 4.22673605 21.63457074 10.875 18.25 C13.20769459 15.91730541 14.77013234 13.60576513 14.875 10.25 C12.65632865 7.47666082 11.26879675 6.38126558 7.875 5.25 C5.48009014 5.18029948 3.08332309 5.16551997 0.6875 5.1875 C-0.58480469 5.19652344 -1.85710937 5.20554687 -3.16796875 5.21484375 C-4.14378906 5.22644531 -5.11960937 5.23804688 -6.125 5.25 Z " fill="#000000" transform="translate(1559.125,671.75)"/>
<path d="M0 0 C1.22460938 -0.020625 2.44921875 -0.04125 3.7109375 -0.0625 C11.16982087 -0.09478954 16.97141987 -0.04364574 22.875 4.9375 C24.41009112 8.48739822 23.90703263 11.64149429 22.875 15.25 C19.94646821 20.49695279 15.04319819 22.60952988 9.875 25.25 C10.28862793 25.68868408 10.70225586 26.12736816 11.12841797 26.5793457 C13.00452806 28.57162604 14.87729207 30.56702159 16.75 32.5625 C17.72646484 33.59793945 17.72646484 33.59793945 18.72265625 34.65429688 C19.34785156 35.32138672 19.97304687 35.98847656 20.6171875 36.67578125 C21.1932373 37.28848877 21.76928711 37.90119629 22.36279297 38.5324707 C23.875 40.25 23.875 40.25 25.875 43.25 C21.65304579 44.045761 18.08009612 44.21891616 13.875 43.25 C8.77901857 39.70334626 4.65583488 34.12231432 1.421875 28.90625 C-0.81035606 26.51618442 -2.60822993 26.65078918 -5.8125 26.5 C-6.80636719 26.44328125 -7.80023437 26.3865625 -8.82421875 26.328125 C-9.58347656 26.30234375 -10.34273437 26.2765625 -11.125 26.25 C-11.24617188 27.05824219 -11.36734375 27.86648438 -11.4921875 28.69921875 C-11.65976563 29.76785156 -11.82734375 30.83648438 -12 31.9375 C-12.16242188 32.99324219 -12.32484375 34.04898438 -12.4921875 35.13671875 C-13.08393069 38.04794914 -13.9281806 40.53955607 -15.125 43.25 C-17.765 43.25 -20.405 43.25 -23.125 43.25 C-22.53507921 35.13858908 -20.62974257 27.39706371 -18.68652344 19.52685547 C-18.11987199 17.22920705 -17.56326164 14.92928569 -17.0078125 12.62890625 C-16.65162479 11.16912843 -16.29487483 9.70948765 -15.9375 8.25 C-15.68746216 7.21734009 -15.68746216 7.21734009 -15.43237305 6.16381836 C-13.327923 -2.30910611 -7.89050221 0.03260538 0 0 Z M-6.125 5.25 C-6.63088147 7.16512272 -7.12948391 9.08216922 -7.625 11 C-7.9034375 12.06734375 -8.181875 13.1346875 -8.46875 14.234375 C-9.26675989 17.38705302 -9.26675989 17.38705302 -9.125 21.25 C-1.76357863 21.58126396 4.22673605 21.63457074 10.875 18.25 C13.20769459 15.91730541 14.77013234 13.60576513 14.875 10.25 C12.65632865 7.47666082 11.26879675 6.38126558 7.875 5.25 C5.48009014 5.18029948 3.08332309 5.16551997 0.6875 5.1875 C-0.58480469 5.19652344 -1.85710937 5.20554687 -3.16796875 5.21484375 C-4.14378906 5.22644531 -5.11960937 5.23804688 -6.125 5.25 Z " fill="#000000" transform="translate(1390.125,671.75)"/>
<path d="M0 0 C1.21913086 -0.01836914 1.21913086 -0.01836914 2.46289062 -0.03710938 C8.00830861 -0.05034426 13.55427261 0.27467157 18.8125 2.1875 C19.8125 4.1875 19.8125 4.1875 18.875 7.3125 C18.3490625 8.735625 18.3490625 8.735625 17.8125 10.1875 C15.5575057 9.63448949 13.3166458 9.05078591 11.078125 8.43359375 C0.85290411 5.69185706 -6.11971827 5.72154236 -16.1875 9.1875 C-16.4377157 12.10384129 -16.4377157 12.10384129 -16.1875 15.1875 C-13.17712683 17.19441544 -11.7333146 17.60363084 -8.2578125 18.15234375 C-7.29746094 18.31283203 -6.33710937 18.47332031 -5.34765625 18.63867188 C-3.33244427 18.96157264 -1.31681929 19.28190688 0.69921875 19.59960938 C10.04654718 21.1700106 10.04654718 21.1700106 13.8125 24.1875 C15.43381535 27.43013069 15.3683183 30.68257516 14.8125 34.1875 C11.12573576 40.37174969 5.73721136 42.77166972 -1.0480957 44.72241211 C-11.00117732 46.8861255 -23.88719075 46.29921567 -33.1875 42.1875 C-32.8575 39.5475 -32.5275 36.9075 -32.1875 34.1875 C-28.69337933 34.99318317 -25.3404627 36.12508697 -21.9375 37.25 C-13.14272794 39.93647441 -5.7513443 40.05555607 2.8125 36.1875 C5.18230013 33.23372502 5.18230013 33.23372502 4.8125 29.1875 C-0.41041712 26.7389292 -5.85167052 26.2038086 -11.50585938 25.41992188 C-17.17392324 24.56141178 -21.99828826 23.37671174 -26.1875 19.1875 C-26.75826465 16.1294031 -26.69303219 13.25262148 -26.1875 10.1875 C-19.97315767 1.4485811 -9.92229292 0.00768574 0 0 Z " fill="#000000" transform="translate(854.1875,670.8125)"/>
<path d="M0 0 C1.21913086 -0.01836914 1.21913086 -0.01836914 2.46289062 -0.03710938 C8.00830861 -0.05034426 13.55427261 0.27467157 18.8125 2.1875 C19.8125 4.1875 19.8125 4.1875 18.875 7.3125 C18.3490625 8.735625 18.3490625 8.735625 17.8125 10.1875 C15.5575057 9.63448949 13.3166458 9.05078591 11.078125 8.43359375 C0.85290411 5.69185706 -6.11971827 5.72154236 -16.1875 9.1875 C-16.4377157 12.10384129 -16.4377157 12.10384129 -16.1875 15.1875 C-13.17712683 17.19441544 -11.7333146 17.60363084 -8.2578125 18.15234375 C-7.29746094 18.31283203 -6.33710937 18.47332031 -5.34765625 18.63867188 C-3.33244427 18.96157264 -1.31681929 19.28190688 0.69921875 19.59960938 C10.04654718 21.1700106 10.04654718 21.1700106 13.8125 24.1875 C15.43381535 27.43013069 15.3683183 30.68257516 14.8125 34.1875 C11.12573576 40.37174969 5.73721136 42.77166972 -1.0480957 44.72241211 C-11.00117732 46.8861255 -23.88719075 46.29921567 -33.1875 42.1875 C-32.8575 39.5475 -32.5275 36.9075 -32.1875 34.1875 C-28.69337933 34.99318317 -25.3404627 36.12508697 -21.9375 37.25 C-13.14272794 39.93647441 -5.7513443 40.05555607 2.8125 36.1875 C5.18230013 33.23372502 5.18230013 33.23372502 4.8125 29.1875 C-0.41041712 26.7389292 -5.85167052 26.2038086 -11.50585938 25.41992188 C-17.17392324 24.56141178 -21.99828826 23.37671174 -26.1875 19.1875 C-26.75826465 16.1294031 -26.69303219 13.25262148 -26.1875 10.1875 C-19.97315767 1.4485811 -9.92229292 0.00768574 0 0 Z " fill="#000000" transform="translate(799.1875,670.8125)"/>
<path d="M0 0 C1.65322266 0.01740234 1.65322266 0.01740234 3.33984375 0.03515625 C4.99693359 0.04869141 4.99693359 0.04869141 6.6875 0.0625 C7.54214844 0.07410156 8.39679688 0.08570313 9.27734375 0.09765625 C10.36470406 4.13128755 11.44892748 8.1657464 12.53051758 12.20092773 C12.8972145 13.56735794 13.26469965 14.93357692 13.63305664 16.29956055 C16.03099969 25.19452257 18.2760513 34.10287851 20.27734375 43.09765625 C16.97734375 43.09765625 13.67734375 43.09765625 10.27734375 43.09765625 C9.13970024 38.83149309 8.27734375 35.53279314 8.27734375 31.09765625 C-5.60176922 29.84133482 -5.60176922 29.84133482 -18.546875 33.22460938 C-20.62752073 35.44583927 -21.87778199 37.97283157 -23.22265625 40.68359375 C-24.72265625 43.09765625 -24.72265625 43.09765625 -27.16015625 43.82421875 C-29.44688533 43.78936008 -31.4967336 43.60776352 -33.72265625 43.09765625 C-32.37548807 40.23512268 -30.84492569 37.75478821 -28.95703125 35.21875 C-28.12594849 34.09702393 -28.12594849 34.09702393 -27.27807617 32.95263672 C-26.6822876 32.15486816 -26.08649902 31.35709961 -25.47265625 30.53515625 C-24.21341762 28.83863373 -22.954307 27.14201619 -21.6953125 25.4453125 C-21.04449707 24.5702002 -20.39368164 23.69508789 -19.72314453 22.79345703 C-17.71430912 20.0864079 -15.71485605 17.37269636 -13.71875 14.65625 C-12.7611377 13.35312866 -12.7611377 13.35312866 -11.78417969 12.02368164 C-10.54885926 10.34209447 -9.31382642 8.660296 -8.07910156 6.97827148 C-7.5219043 6.22102783 -6.96470703 5.46378418 -6.390625 4.68359375 C-5.89844482 4.01376465 -5.40626465 3.34393555 -4.89916992 2.65380859 C-2.97341611 0.10665051 -2.97341611 0.10665051 0 0 Z M1.27734375 6.09765625 C0.18833197 7.44328627 -0.85655857 8.82466619 -1.8828125 10.21875 C-2.51123047 11.07146484 -3.13964844 11.92417969 -3.78710938 12.80273438 C-4.44646484 13.70443359 -5.10582031 14.60613281 -5.78515625 15.53515625 C-6.44837891 16.43298828 -7.11160156 17.33082031 -7.79492188 18.25585938 C-11.00878071 21.87688879 -11.00878071 21.87688879 -12.72265625 26.09765625 C-6.45265625 26.09765625 -0.18265625 26.09765625 6.27734375 26.09765625 C5.08843298 19.3888026 3.8013884 12.73813651 2.27734375 6.09765625 C1.94734375 6.09765625 1.61734375 6.09765625 1.27734375 6.09765625 Z " fill="#000000" transform="translate(1619.72265625,671.90234375)"/>
<path d="M0 0 C1.65322266 0.01740234 1.65322266 0.01740234 3.33984375 0.03515625 C4.99693359 0.04869141 4.99693359 0.04869141 6.6875 0.0625 C7.54214844 0.07410156 8.39679687 0.08570313 9.27734375 0.09765625 C10.36470406 4.13128755 11.44892748 8.1657464 12.53051758 12.20092773 C12.8972145 13.56735794 13.26469965 14.93357692 13.63305664 16.29956055 C16.03099969 25.19452257 18.2760513 34.10287851 20.27734375 43.09765625 C16.97734375 43.09765625 13.67734375 43.09765625 10.27734375 43.09765625 C9.13970024 38.83149309 8.27734375 35.53279314 8.27734375 31.09765625 C-5.60176922 29.84133482 -5.60176922 29.84133482 -18.546875 33.22460938 C-20.62752073 35.44583927 -21.87778199 37.97283157 -23.22265625 40.68359375 C-24.72265625 43.09765625 -24.72265625 43.09765625 -27.16015625 43.82421875 C-29.44688533 43.78936008 -31.4967336 43.60776352 -33.72265625 43.09765625 C-32.37548807 40.23512268 -30.84492569 37.75478821 -28.95703125 35.21875 C-28.12594849 34.09702393 -28.12594849 34.09702393 -27.27807617 32.95263672 C-26.6822876 32.15486816 -26.08649902 31.35709961 -25.47265625 30.53515625 C-24.21341762 28.83863373 -22.954307 27.14201619 -21.6953125 25.4453125 C-21.04449707 24.5702002 -20.39368164 23.69508789 -19.72314453 22.79345703 C-17.71430912 20.0864079 -15.71485605 17.37269636 -13.71875 14.65625 C-12.7611377 13.35312866 -12.7611377 13.35312866 -11.78417969 12.02368164 C-10.54885926 10.34209447 -9.31382642 8.660296 -8.07910156 6.97827148 C-7.5219043 6.22102783 -6.96470703 5.46378418 -6.390625 4.68359375 C-5.89844482 4.01376465 -5.40626465 3.34393555 -4.89916992 2.65380859 C-2.97341611 0.10665051 -2.97341611 0.10665051 0 0 Z M1.27734375 6.09765625 C0.18833197 7.44328627 -0.85655857 8.82466619 -1.8828125 10.21875 C-2.51123047 11.07146484 -3.13964844 11.92417969 -3.78710938 12.80273438 C-4.44646484 13.70443359 -5.10582031 14.60613281 -5.78515625 15.53515625 C-6.44837891 16.43298828 -7.11160156 17.33082031 -7.79492188 18.25585938 C-11.00878071 21.87688879 -11.00878071 21.87688879 -12.72265625 26.09765625 C-6.45265625 26.09765625 -0.18265625 26.09765625 6.27734375 26.09765625 C5.08843298 19.3888026 3.8013884 12.73813651 2.27734375 6.09765625 C1.94734375 6.09765625 1.61734375 6.09765625 1.27734375 6.09765625 Z " fill="#000000" transform="translate(739.72265625,671.90234375)"/>
<path d="M0 0 C2.97 0 5.94 0 9 0 C8.81824219 0.73524902 8.63648438 1.47049805 8.44921875 2.22802734 C7.62092702 5.60756378 6.81037777 8.99112526 6 12.375 C5.57074219 14.10943359 5.57074219 14.10943359 5.1328125 15.87890625 C3.51124829 22.71264114 2.56631185 28.97465351 3 36 C11.79814933 38.87286509 18.25188998 37.91603667 27 35 C29.15618383 30.77713431 30.19316075 25.99896182 31.4375 21.4375 C31.76463989 20.24954834 31.76463989 20.24954834 32.09838867 19.03759766 C33.82915444 12.71559284 35.46320154 6.37209116 37 0 C39.97 0 42.94 0 46 0 C44.88695145 6.98184997 43.40247961 13.83225089 41.6875 20.6875 C41.49905518 21.48260986 41.31061035 22.27771973 41.11645508 23.09692383 C39.35001066 29.96801465 36.66675213 35.79703085 31.125 40.375 C25.00196319 43.55897914 19.26983214 44.34277653 12.5 44.3125 C11.77941406 44.32861328 11.05882812 44.34472656 10.31640625 44.36132812 C4.1013088 44.36694756 -0.64015355 43.05730204 -5.4375 38.875 C-9.53358139 31.33821024 -6.04294908 21.85287062 -4.0625 14.0625 C-3.78470703 12.92748047 -3.50691406 11.79246094 -3.22070312 10.62304688 C-1.17184733 2.34369466 -1.17184733 2.34369466 0 0 Z " fill="#000000" transform="translate(887,672)"/>
<path d="M0 0 C1.64510941 0.00015915 3.29022379 0.00585551 4.93530273 0.01586914 C6.23164894 0.01799156 6.23164894 0.01799156 7.55418396 0.02015686 C10.32578941 0.025773 13.09731528 0.0383282 15.86889648 0.05102539 C17.74324428 0.05603831 19.61759334 0.06060158 21.49194336 0.06469727 C26.09679192 0.07574767 30.70158069 0.09302309 35.30639648 0.11352539 C35.30639648 1.76352539 35.30639648 3.41352539 35.30639648 5.11352539 C24.74639648 5.11352539 14.18639648 5.11352539 3.30639648 5.11352539 C2.97639648 7.75352539 2.64639648 10.39352539 2.30639648 13.11352539 C1.97639648 14.43352539 1.64639648 15.75352539 1.30639648 17.11352539 C11.20639648 17.11352539 21.10639648 17.11352539 31.30639648 17.11352539 C30.81139648 19.58852539 30.81139648 19.58852539 30.30639648 22.11352539 C20.07639648 22.11352539 9.84639648 22.11352539 -0.69360352 22.11352539 C-1.35360352 26.07352539 -2.01360352 30.03352539 -2.69360352 34.11352539 C-3.02360352 35.43352539 -3.35360352 36.75352539 -3.69360352 38.11352539 C6.20639648 38.11352539 16.10639648 38.11352539 26.30639648 38.11352539 C25.97639648 39.76352539 25.64639648 41.41352539 25.30639648 43.11352539 C12.43639648 43.11352539 -0.43360352 43.11352539 -13.69360352 43.11352539 C-13.03536212 37.18935287 -12.29875441 31.76822166 -10.88110352 26.05102539 C-10.70732178 25.33366211 -10.53354004 24.61629883 -10.35449219 23.87719727 C-9.9907181 22.38093744 -9.62424266 20.88533191 -9.25512695 19.39038086 C-8.68847551 17.09273244 -8.13186516 14.79281108 -7.57641602 12.49243164 C-7.22022831 11.03265382 -6.86347834 9.57301304 -6.50610352 8.11352539 C-6.25606567 7.08086548 -6.25606567 7.08086548 -6.00097656 6.02734375 C-4.53859127 0.13949666 -4.53859127 0.13949666 0 0 Z " fill="#000000" transform="translate(1180.693603515625,671.886474609375)"/>
<path d="M0 0 C1.17691406 -0.020625 2.35382813 -0.04125 3.56640625 -0.0625 C10.95405781 -0.09574028 16.22538225 0.16960891 22.28515625 4.66796875 C24.48601919 7.86276979 23.91940075 11.55946932 23.375 15.25 C20.74763719 21.19012461 16.1121728 23.71473526 10.375 26.25 C7.60210927 27.06805313 5.15204328 27.36952306 2.265625 27.34765625 C1.51152344 27.34443359 0.75742188 27.34121094 -0.01953125 27.33789062 C-0.79683594 27.32951172 -1.57414062 27.32113281 -2.375 27.3125 C-3.16777344 27.30798828 -3.96054688 27.30347656 -4.77734375 27.29882812 C-6.72659508 27.28708565 -8.67580738 27.26915146 -10.625 27.25 C-10.82996094 28.32121094 -11.03492188 29.39242187 -11.24609375 30.49609375 C-11.51802709 31.89326851 -11.79017352 33.29040181 -12.0625 34.6875 C-12.19720703 35.39455078 -12.33191406 36.10160156 -12.47070312 36.83007812 C-13.51171875 42.13671875 -13.51171875 42.13671875 -14.625 43.25 C-17.29558851 43.39115161 -19.94932238 43.29247107 -22.625 43.25 C-22.03507921 35.13858908 -20.12974257 27.39706371 -18.18652344 19.52685547 C-17.61987199 17.22920705 -17.06326164 14.92928569 -16.5078125 12.62890625 C-16.15162479 11.16912843 -15.79487483 9.70948765 -15.4375 8.25 C-15.18746216 7.21734009 -15.18746216 7.21734009 -14.93237305 6.16381836 C-12.85845223 -2.1861895 -7.80032399 0.03351374 0 0 Z M-5.625 5.25 C-6.945 10.86 -8.265 16.47 -9.625 22.25 C-1.22313952 22.56905799 5.89121302 22.42145908 12.9375 17.4375 C14.88426754 14.47502765 14.96610913 12.72276615 14.375 9.25 C11.1589125 5.91905223 7.8692406 5.29838862 3.359375 5.15234375 C1.75835938 5.16974609 1.75835938 5.16974609 0.125 5.1875 C-2.72125 5.2184375 -2.72125 5.2184375 -5.625 5.25 Z " fill="#000000" transform="translate(1446.625,671.75)"/>
<path d="M0 0 C0.78358887 0.00128906 1.56717773 0.00257813 2.37451172 0.00390625 C8.3185244 0.10229669 13.61104622 0.98500192 19.125 3.3125 C18.795 5.9525 18.465 8.5925 18.125 11.3125 C15.42572779 10.77264556 13.23579342 9.92448258 10.6875 8.8125 C2.81183595 5.49643093 -4.35981755 5.64107832 -12.44140625 8.2734375 C-17.70734159 10.52181439 -20.90405049 13.68381049 -23.8125 18.5625 C-25.14606108 23.26918617 -25.74592899 27.46487637 -24.875 32.3125 C-21.88706049 36.53076755 -18.88524799 38.23185828 -13.875 39.3125 C-4.66490238 39.91644083 3.51652476 37.36515079 12.125 34.3125 C11.795 36.6225 11.465 38.9325 11.125 41.3125 C3.6259981 44.23583972 -2.64640618 45.50937964 -10.6875 45.5625 C-11.45642578 45.583125 -12.22535156 45.60375 -13.01757812 45.625 C-20.68589212 45.67676921 -27.22138353 43.79983363 -32.875 38.3125 C-36.23600538 32.97027039 -35.64794129 25.94773949 -34.375 19.9609375 C-31.66166508 11.97509949 -26.67677341 7.86267897 -19.66796875 3.609375 C-13.21867883 0.61473968 -7.00659422 -0.048083 0 0 Z " fill="#000000" transform="translate(1282.875,670.6875)"/>
<path d="M0 0 C0.78358887 0.00128906 1.56717773 0.00257813 2.37451172 0.00390625 C8.3185244 0.10229669 13.61104622 0.98500192 19.125 3.3125 C18.795 5.9525 18.465 8.5925 18.125 11.3125 C15.42572779 10.77264556 13.23579342 9.92448258 10.6875 8.8125 C2.81183595 5.49643093 -4.35981755 5.64107832 -12.44140625 8.2734375 C-17.70734159 10.52181439 -20.90405049 13.68381049 -23.8125 18.5625 C-25.14606108 23.26918617 -25.74592899 27.46487637 -24.875 32.3125 C-21.88706049 36.53076755 -18.88524799 38.23185828 -13.875 39.3125 C-4.66490238 39.91644083 3.51652476 37.36515079 12.125 34.3125 C11.795 36.6225 11.465 38.9325 11.125 41.3125 C3.6259981 44.23583972 -2.64640618 45.50937964 -10.6875 45.5625 C-11.45642578 45.583125 -12.22535156 45.60375 -13.01757812 45.625 C-20.68589212 45.67676921 -27.22138353 43.79983363 -32.875 38.3125 C-36.23600538 32.97027039 -35.64794129 25.94773949 -34.375 19.9609375 C-31.66166508 11.97509949 -26.67677341 7.86267897 -19.66796875 3.609375 C-13.21867883 0.61473968 -7.00659422 -0.048083 0 0 Z " fill="#000000" transform="translate(1145.875,670.6875)"/>
<path d="M0 0 C16.83 0 33.66 0 51 0 C50.67 1.65 50.34 3.3 50 5 C42.74 5 35.48 5 28 5 C27.67 7.64 27.34 10.28 27 13 C26.50614617 15.37137792 25.97469954 17.73523339 25.40625 20.08984375 C24.94412109 22.00700195 24.94412109 22.00700195 24.47265625 23.96289062 C24.31297363 24.61491455 24.15329102 25.26693848 23.98876953 25.9387207 C23.49553256 27.95576919 23.01101435 29.97477925 22.52734375 31.99414062 C20.12980487 41.87019513 20.12980487 41.87019513 19 43 C16.32941149 43.14115161 13.67567762 43.04247107 11 43 C11.71021565 35.1576187 13.67644499 27.62400397 15.5625 20 C15.89559326 18.63942346 16.228279 17.27874709 16.56054688 15.91796875 C17.36969924 12.6109982 18.18430784 9.30536353 19 6 C12.4 5.67 5.8 5.34 -1 5 C-0.67 3.35 -0.34 1.7 0 0 Z " fill="#000000" transform="translate(1646,672)"/>
<path d="M0 0 C7.92 0 15.84 0 24 0 C23.67 1.65 23.34 3.3 23 5 C20.69 5.33 18.38 5.66 16 6 C13.36 16.56 10.72 27.12 8 38 C10.31 38 12.62 38 15 38 C14.67 39.65 14.34 41.3 14 43 C6.08 43 -1.84 43 -10 43 C-9.67 41.35 -9.34 39.7 -9 38 C-6.36 38 -3.72 38 -1 38 C-0.91363281 37.44957031 -0.82726563 36.89914062 -0.73828125 36.33203125 C0.98926814 26.10937663 3.54662606 16.06724474 6 6 C3.69 5.67 1.38 5.34 -1 5 C-0.67 3.35 -0.34 1.7 0 0 Z " fill="#000000" transform="translate(1701,672)"/>
<path d="M0 0 C0.33 0.66 0.66 1.32 1 2 C-0.8125 5 -0.8125 5 -3 8 C-3.99 8 -4.98 8 -6 8 C-4.02 5.36 -2.04 2.72 0 0 Z " fill="#DFDFDF" transform="translate(1655,529)"/>
</svg>
